%TF.GenerationSoftware,KiCad,Pcbnew,8.0.9-8.0.9-0~ubuntu24.04.1*%
%TF.CreationDate,2025-06-09T21:45:26+03:00*%
%TF.ProjectId,BLDC Motor Driver,424c4443-204d-46f7-946f-722044726976,rev?*%
%TF.SameCoordinates,Original*%
%TF.FileFunction,Soldermask,Bot*%
%TF.FilePolarity,Negative*%
%FSLAX46Y46*%
G04 Gerber Fmt 4.6, Leading zero omitted, Abs format (unit mm)*
G04 Created by KiCad (PCBNEW 8.0.9-8.0.9-0~ubuntu24.04.1) date 2025-06-09 21:45:26*
%MOMM*%
%LPD*%
G01*
G04 APERTURE LIST*
%ADD10R,1.700000X1.700000*%
%ADD11O,1.700000X1.700000*%
%ADD12C,3.200000*%
%ADD13R,2.600000X2.600000*%
%ADD14C,2.600000*%
%ADD15R,2.000000X1.905000*%
%ADD16O,2.000000X1.905000*%
%ADD17R,1.905000X2.000000*%
%ADD18O,1.905000X2.000000*%
%ADD19R,1.900000X1.900000*%
%ADD20C,1.900000*%
G04 APERTURE END LIST*
D10*
%TO.C,J5*%
X132400000Y-58200000D03*
D11*
X129860000Y-58200000D03*
X127320000Y-58200000D03*
X124780000Y-58200000D03*
X122240000Y-58200000D03*
X119700000Y-58200000D03*
%TD*%
D12*
%TO.C,H3*%
X107535489Y-43060536D03*
%TD*%
D10*
%TO.C,J6*%
X172477989Y-84213037D03*
%TD*%
D13*
%TO.C,J3*%
X108550000Y-112850000D03*
D14*
X108550000Y-117930000D03*
X108550000Y-123010000D03*
%TD*%
D15*
%TO.C,MOSFET4*%
X200550000Y-75610000D03*
D16*
X200550000Y-78150000D03*
X200550000Y-80690000D03*
%TD*%
D15*
%TO.C,MOSFET8*%
X200490000Y-118810000D03*
D16*
X200490000Y-121350000D03*
X200490000Y-123890000D03*
%TD*%
D15*
%TO.C,MOSFET1*%
X200565000Y-43170000D03*
D16*
X200565000Y-45710000D03*
X200565000Y-48250000D03*
%TD*%
D15*
%TO.C,MOSFET3*%
X200550000Y-53910000D03*
D16*
X200550000Y-56450000D03*
X200550000Y-58990000D03*
%TD*%
D17*
%TO.C,MOSFET11*%
X178645489Y-139755536D03*
D18*
X176105489Y-139755536D03*
X173565489Y-139755536D03*
%TD*%
D17*
%TO.C,MOSFET12*%
X157255489Y-139755536D03*
D18*
X154715489Y-139755536D03*
X152175489Y-139755536D03*
%TD*%
D12*
%TO.C,H4*%
X107800000Y-155600000D03*
%TD*%
D13*
%TO.C,J2*%
X108345000Y-68415000D03*
D14*
X108345000Y-73495000D03*
X108345000Y-78575000D03*
%TD*%
D10*
%TO.C,J7*%
X172522011Y-118781963D03*
%TD*%
D15*
%TO.C,MOSFET7*%
X200500000Y-97220000D03*
D16*
X200500000Y-99760000D03*
X200500000Y-102300000D03*
%TD*%
D17*
%TO.C,MOSFET10*%
X167955489Y-139785536D03*
D18*
X165415489Y-139785536D03*
X162875489Y-139785536D03*
%TD*%
D17*
%TO.C,MOSFET9*%
X189510489Y-139785536D03*
D18*
X186970489Y-139785536D03*
X184430489Y-139785536D03*
%TD*%
D15*
%TO.C,MOSFET2*%
X200550000Y-64710000D03*
D16*
X200550000Y-67250000D03*
X200550000Y-69790000D03*
%TD*%
D13*
%TO.C,J4*%
X116400000Y-155100000D03*
D14*
X121480000Y-155100000D03*
X126560000Y-155100000D03*
X131640000Y-155100000D03*
X136720000Y-155100000D03*
X141800000Y-155100000D03*
%TD*%
D15*
%TO.C,MOSFET5*%
X200520000Y-86300000D03*
D16*
X200520000Y-88840000D03*
X200520000Y-91380000D03*
%TD*%
D10*
%TO.C,J8*%
X148877989Y-120593037D03*
%TD*%
D15*
%TO.C,MOSFET6*%
X200500000Y-108020000D03*
D16*
X200500000Y-110560000D03*
X200500000Y-113100000D03*
%TD*%
D19*
%TO.C,S1*%
X132850000Y-106938750D03*
D20*
X135350000Y-106938750D03*
X137850000Y-106938750D03*
%TD*%
D10*
%TO.C,J9*%
X146500000Y-85600000D03*
D11*
X146500000Y-83060000D03*
X146500000Y-80520000D03*
%TD*%
D12*
%TO.C,H2*%
X225700000Y-43000000D03*
%TD*%
D13*
%TO.C,J10*%
X108600000Y-129970000D03*
D14*
X108600000Y-135050000D03*
X108600000Y-140130000D03*
%TD*%
G36*
X179384498Y-38859909D02*
G01*
X179430466Y-38912527D01*
X179441867Y-38962606D01*
X179469986Y-40809080D01*
X179470000Y-40810968D01*
X179470000Y-40879874D01*
X179649745Y-128835490D01*
X179630197Y-128902569D01*
X179577487Y-128948432D01*
X179525489Y-128959743D01*
X170021446Y-128940126D01*
X169987990Y-128930227D01*
X146683225Y-128741000D01*
X146616348Y-128720772D01*
X146571023Y-128667598D01*
X146560232Y-128616770D01*
X146579763Y-118285071D01*
X146599574Y-118218068D01*
X146652465Y-118172413D01*
X146705065Y-118161312D01*
X164680000Y-118349999D01*
X164670000Y-53599999D01*
X164634744Y-53552992D01*
X164610267Y-53487550D01*
X164609943Y-53478761D01*
X164590169Y-39023669D01*
X164609762Y-38956602D01*
X164662503Y-38910775D01*
X164713668Y-38899500D01*
X179317380Y-38840495D01*
X179384498Y-38859909D01*
G37*
G36*
X192653406Y-69469685D02*
G01*
X192699161Y-69522489D01*
X192710366Y-69574362D01*
X192709999Y-69699865D01*
X192710000Y-69699866D01*
X192700000Y-82910000D01*
X199099999Y-87700000D01*
X201676000Y-87700000D01*
X201743039Y-87719685D01*
X201788794Y-87772489D01*
X201800000Y-87824000D01*
X201800000Y-89876000D01*
X201780315Y-89943039D01*
X201727511Y-89988794D01*
X201676000Y-90000000D01*
X199000000Y-90000000D01*
X196600000Y-91450000D01*
X196600000Y-96969999D01*
X199099999Y-98599999D01*
X199100001Y-98600000D01*
X201576000Y-98600000D01*
X201643039Y-98619685D01*
X201688794Y-98672489D01*
X201700000Y-98724000D01*
X201700000Y-100776000D01*
X201680315Y-100843039D01*
X201627511Y-100888794D01*
X201576000Y-100900000D01*
X199000000Y-100900000D01*
X192700000Y-105919999D01*
X192709974Y-136021670D01*
X192690312Y-136088716D01*
X192639276Y-136133670D01*
X188110001Y-138289998D01*
X188110000Y-138290000D01*
X188110000Y-140906000D01*
X188090315Y-140973039D01*
X188037511Y-141018794D01*
X187986000Y-141030000D01*
X185933550Y-141030000D01*
X185866511Y-141010315D01*
X185820756Y-140957511D01*
X185809551Y-140906451D01*
X185799999Y-138279999D01*
X184053686Y-137181254D01*
X183621249Y-137181919D01*
X183555024Y-137162873D01*
X182438636Y-136460465D01*
X182438632Y-136460464D01*
X181024899Y-136469585D01*
X181024897Y-136469585D01*
X179745036Y-137172655D01*
X179685525Y-137187974D01*
X179196537Y-137188727D01*
X177210000Y-138279999D01*
X177210000Y-140865459D01*
X177190315Y-140932498D01*
X177137511Y-140978253D01*
X177085461Y-140989458D01*
X175032967Y-140980534D01*
X174966014Y-140960558D01*
X174920489Y-140907556D01*
X174909507Y-140857032D01*
X174899397Y-138334897D01*
X174718831Y-138248004D01*
X174666958Y-138201197D01*
X174648602Y-138136766D01*
X174620497Y-131124497D01*
X174639913Y-131057379D01*
X174692533Y-131011413D01*
X174744496Y-131000000D01*
X174869980Y-131000000D01*
X182050000Y-130969999D01*
X181800000Y-69700000D01*
X181800000Y-69699896D01*
X181799593Y-69574402D01*
X181819060Y-69507299D01*
X181871715Y-69461373D01*
X181923592Y-69450000D01*
X192586367Y-69450000D01*
X192653406Y-69469685D01*
G37*
G36*
X201567569Y-111898450D02*
G01*
X201634354Y-111918981D01*
X201679437Y-111972360D01*
X201690000Y-112022440D01*
X201690000Y-114240241D01*
X201670315Y-114307280D01*
X201643258Y-114337232D01*
X198790000Y-116609999D01*
X198790000Y-122700000D01*
X201566294Y-122700000D01*
X201633333Y-122719685D01*
X201679088Y-122772489D01*
X201690294Y-122823705D01*
X201699624Y-126752108D01*
X201680098Y-126819195D01*
X201627403Y-126865075D01*
X201558269Y-126875182D01*
X201546519Y-126872939D01*
X193884895Y-125022913D01*
X193824348Y-124988043D01*
X193792266Y-124925974D01*
X193790000Y-124902377D01*
X193790000Y-111925579D01*
X193809685Y-111858540D01*
X193862489Y-111812785D01*
X193915569Y-111801589D01*
X201567569Y-111898450D01*
G37*
G36*
X175063275Y-131018876D02*
G01*
X175109251Y-131071488D01*
X175120671Y-131122795D01*
X175159929Y-138326421D01*
X175157678Y-138350625D01*
X175146166Y-138410195D01*
X175127865Y-138455040D01*
X175127056Y-138456264D01*
X175073670Y-138501337D01*
X175004389Y-138510392D01*
X174941211Y-138480554D01*
X174904194Y-138421296D01*
X174899611Y-138388387D01*
X174899397Y-138334897D01*
X170720083Y-136323725D01*
X170668209Y-136276917D01*
X170649852Y-136212223D01*
X170640235Y-131124234D01*
X170659793Y-131057158D01*
X170712510Y-131011303D01*
X170764235Y-131000000D01*
X174869979Y-131000000D01*
X174996154Y-130999472D01*
X175063275Y-131018876D01*
G37*
G36*
X192619912Y-40965699D02*
G01*
X192647712Y-40974559D01*
X192650098Y-40975643D01*
X192654532Y-40977764D01*
X192725116Y-41013271D01*
X192776159Y-41060983D01*
X192793391Y-41124407D01*
X192792799Y-41327168D01*
X199100002Y-44500000D01*
X201676000Y-44500000D01*
X201743039Y-44519685D01*
X201788794Y-44572489D01*
X201800000Y-44624000D01*
X201800000Y-46776000D01*
X201780315Y-46843039D01*
X201727511Y-46888794D01*
X201676000Y-46900000D01*
X199000000Y-46900000D01*
X196200000Y-48609999D01*
X196200000Y-53290000D01*
X199100001Y-55300000D01*
X201676000Y-55300000D01*
X201743039Y-55319685D01*
X201788794Y-55372489D01*
X201800000Y-55424000D01*
X201800000Y-57476000D01*
X201780315Y-57543039D01*
X201727511Y-57588794D01*
X201676000Y-57600000D01*
X199000001Y-57600000D01*
X192717212Y-67228296D01*
X192717212Y-67228297D01*
X192716872Y-67344889D01*
X192696992Y-67411871D01*
X192644055Y-67457471D01*
X192574868Y-67467213D01*
X192511397Y-67438002D01*
X192506154Y-67433160D01*
X192501290Y-67428401D01*
X192473971Y-67388465D01*
X192452636Y-67338503D01*
X192443377Y-67302988D01*
X192440669Y-67277658D01*
X192439968Y-67265189D01*
X192290074Y-41213652D01*
X192292317Y-41189449D01*
X192303810Y-41129878D01*
X192322068Y-41085072D01*
X192348623Y-41044830D01*
X192382637Y-41010422D01*
X192422573Y-40983404D01*
X192467167Y-40964631D01*
X192514398Y-40954954D01*
X192562777Y-40954676D01*
X192619912Y-40965699D01*
G37*
G36*
X163903454Y-130979728D02*
G01*
X163949249Y-131032496D01*
X163960494Y-131083599D01*
X163999502Y-140835504D01*
X163980086Y-140902622D01*
X163927465Y-140948587D01*
X163875503Y-140960000D01*
X161761613Y-140960000D01*
X161694574Y-140940315D01*
X161673630Y-140923378D01*
X158820000Y-138050000D01*
X153310000Y-138050000D01*
X153310000Y-140836301D01*
X153290315Y-140903340D01*
X153237511Y-140949095D01*
X153186302Y-140960301D01*
X149358973Y-140969636D01*
X149291886Y-140950115D01*
X149246003Y-140897422D01*
X149235890Y-140828288D01*
X149236675Y-140823433D01*
X151011487Y-131071717D01*
X151042857Y-131009285D01*
X151103001Y-130973725D01*
X151133387Y-130969920D01*
X163836399Y-130960095D01*
X163903454Y-130979728D01*
G37*
G36*
X174643452Y-138569685D02*
G01*
X174689207Y-138622489D01*
X174700412Y-138673587D01*
X174709999Y-141549999D01*
X174710000Y-141550000D01*
X179939999Y-141550000D01*
X183164439Y-138592616D01*
X183227150Y-138561809D01*
X183248254Y-138560000D01*
X185426555Y-138560000D01*
X185493594Y-138579685D01*
X185539349Y-138632489D01*
X185550554Y-138683443D01*
X185599444Y-149576316D01*
X185580060Y-149643444D01*
X185527462Y-149689435D01*
X185476318Y-149700870D01*
X164290000Y-149850000D01*
X164299876Y-159864826D01*
X164280257Y-159931885D01*
X164227499Y-159977692D01*
X164174830Y-159988944D01*
X153752550Y-159901033D01*
X153685679Y-159880783D01*
X153640371Y-159827595D01*
X153629597Y-159777444D01*
X153560408Y-138684407D01*
X153579872Y-138617303D01*
X153632526Y-138571375D01*
X153684407Y-138560000D01*
X155736000Y-138560000D01*
X155803039Y-138579685D01*
X155848794Y-138632489D01*
X155860000Y-138684000D01*
X155860000Y-141650000D01*
X164240000Y-141659999D01*
X164259204Y-138673740D01*
X164279319Y-138606828D01*
X164332416Y-138561414D01*
X164383740Y-138550538D01*
X166436125Y-138559461D01*
X166503078Y-138579437D01*
X166548603Y-138632439D01*
X166559585Y-138683875D01*
X166549999Y-141549999D01*
X166550000Y-141550000D01*
X169639998Y-141560000D01*
X169640000Y-141559999D01*
X172363144Y-138590196D01*
X172422960Y-138554088D01*
X172454538Y-138550000D01*
X174576413Y-138550000D01*
X174643452Y-138569685D01*
G37*
G36*
X212242413Y-90120127D02*
G01*
X212288573Y-90172577D01*
X212300178Y-90224778D01*
X212399811Y-159838876D01*
X212380222Y-159905943D01*
X212327484Y-159951774D01*
X212275901Y-159963053D01*
X208257114Y-159965976D01*
X208256904Y-159965976D01*
X202224211Y-159960120D01*
X202157190Y-159940370D01*
X202111487Y-159887522D01*
X202100331Y-159835789D01*
X202199999Y-122509999D01*
X199424110Y-122500427D01*
X199357139Y-122480512D01*
X199311567Y-122427550D01*
X199300539Y-122375889D01*
X199309465Y-120323032D01*
X199329441Y-120256079D01*
X199382443Y-120210554D01*
X199433033Y-120199572D01*
X202190000Y-120189999D01*
X202199999Y-111700000D01*
X199424000Y-111700000D01*
X199356961Y-111680315D01*
X199311206Y-111627511D01*
X199300000Y-111576000D01*
X199300000Y-109524000D01*
X199319685Y-109456961D01*
X199372489Y-109411206D01*
X199424000Y-109400000D01*
X202200000Y-109400000D01*
X202200000Y-106100000D01*
X199341224Y-103536959D01*
X199304449Y-103477550D01*
X199300000Y-103444632D01*
X199300000Y-101324000D01*
X199319685Y-101256961D01*
X199372489Y-101211206D01*
X199424000Y-101200000D01*
X202200000Y-101200000D01*
X202200000Y-95800000D01*
X202199999Y-95799999D01*
X199330856Y-92535111D01*
X199301388Y-92471759D01*
X199300000Y-92453257D01*
X199300000Y-90323049D01*
X199319685Y-90256010D01*
X199372489Y-90210255D01*
X199423046Y-90199053D01*
X212175224Y-90100959D01*
X212242413Y-90120127D01*
G37*
G36*
X201577550Y-68598469D02*
G01*
X201644338Y-68618990D01*
X201689429Y-68672361D01*
X201700000Y-68722459D01*
X201700000Y-70844632D01*
X201680315Y-70911671D01*
X201658776Y-70936959D01*
X198800000Y-73500000D01*
X198800000Y-79500000D01*
X201576000Y-79500000D01*
X201643039Y-79519685D01*
X201688794Y-79572489D01*
X201700000Y-79624000D01*
X201700000Y-83737297D01*
X201680315Y-83804336D01*
X201627511Y-83850091D01*
X201558353Y-83860035D01*
X201543121Y-83856858D01*
X193791121Y-81725058D01*
X193731700Y-81688303D01*
X193701584Y-81625256D01*
X193700000Y-81605497D01*
X193700000Y-68625559D01*
X193719685Y-68558520D01*
X193772489Y-68512765D01*
X193825550Y-68501569D01*
X201577550Y-68598469D01*
G37*
G36*
X192675750Y-38859888D02*
G01*
X192742771Y-38879633D01*
X192788479Y-38932478D01*
X192799637Y-38984250D01*
X192792799Y-41327168D01*
X192792800Y-41327169D01*
X192973935Y-41418289D01*
X193024978Y-41466001D01*
X193042210Y-41529425D01*
X192968444Y-66806767D01*
X192948564Y-66873749D01*
X192948292Y-66874168D01*
X192717213Y-67228296D01*
X192717212Y-67228298D01*
X192709999Y-69699864D01*
X192710000Y-69699865D01*
X192709905Y-69826093D01*
X192690170Y-69893118D01*
X192637332Y-69938833D01*
X192585905Y-69950000D01*
X181924515Y-69950000D01*
X181857476Y-69930315D01*
X181811721Y-69877511D01*
X181800516Y-69826506D01*
X181800000Y-69700000D01*
X181800000Y-69699896D01*
X181700403Y-38974514D01*
X181719870Y-38907411D01*
X181772525Y-38861485D01*
X181824514Y-38850112D01*
X192675750Y-38859888D01*
G37*
G36*
X225776248Y-47199533D02*
G01*
X225843213Y-47219470D01*
X225888768Y-47272447D01*
X225899780Y-47323752D01*
X225700218Y-159776842D01*
X225680414Y-159843846D01*
X225627529Y-159889508D01*
X225576843Y-159900620D01*
X215904607Y-159949371D01*
X215837469Y-159930025D01*
X215791449Y-159877452D01*
X215779982Y-159825391D01*
X215770000Y-90170001D01*
X215769999Y-90169999D01*
X202340000Y-79310000D01*
X199524000Y-79310000D01*
X199456961Y-79290315D01*
X199411206Y-79237511D01*
X199400000Y-79186000D01*
X199400000Y-77134000D01*
X199419685Y-77066961D01*
X199472489Y-77021206D01*
X199524000Y-77010000D01*
X206500000Y-77010000D01*
X206499999Y-77009999D01*
X202400000Y-68400000D01*
X199524540Y-68400000D01*
X199457501Y-68380315D01*
X199411746Y-68327511D01*
X199400541Y-68275461D01*
X199409463Y-66223461D01*
X199429439Y-66156508D01*
X199482441Y-66110983D01*
X199533462Y-66100000D01*
X206500001Y-66100000D01*
X206500000Y-66099999D01*
X199443963Y-60137151D01*
X199405464Y-60078845D01*
X199400000Y-60042441D01*
X199400000Y-57924000D01*
X199419685Y-57856961D01*
X199472489Y-57811206D01*
X199524000Y-57800000D01*
X206499999Y-57800000D01*
X199429297Y-49434661D01*
X199401055Y-49370754D01*
X199400000Y-49354615D01*
X199400000Y-47224468D01*
X199419685Y-47157429D01*
X199472489Y-47111674D01*
X199524468Y-47100469D01*
X225776248Y-47199533D01*
G37*
G36*
X182520377Y-135962309D02*
G01*
X182591967Y-135976070D01*
X182615700Y-135983151D01*
X184953743Y-136944126D01*
X184975212Y-136955526D01*
X185025747Y-136989093D01*
X185060052Y-137023211D01*
X185086949Y-137063228D01*
X185105586Y-137107877D01*
X185115121Y-137155139D01*
X185115253Y-137203523D01*
X185105975Y-137250837D01*
X185087583Y-137295583D01*
X185060907Y-137335745D01*
X185026788Y-137370052D01*
X184986771Y-137396949D01*
X184942121Y-137415586D01*
X184882724Y-137427569D01*
X184858392Y-137430018D01*
X184485927Y-137430590D01*
X184419702Y-137411544D01*
X184053686Y-137181255D01*
X179196539Y-137188727D01*
X178767959Y-137424160D01*
X178708465Y-137439478D01*
X178704297Y-137439485D01*
X178637225Y-137419913D01*
X178591381Y-137367186D01*
X178581322Y-137298044D01*
X178610240Y-137234440D01*
X178644387Y-137206804D01*
X180828923Y-136006766D01*
X180851274Y-135997206D01*
X180917917Y-135976154D01*
X180948075Y-135970604D01*
X180955200Y-135970190D01*
X180961593Y-135969984D01*
X182496170Y-135960083D01*
X182520377Y-135962309D01*
G37*
G36*
X178095332Y-137591124D02*
G01*
X178137345Y-137646951D01*
X178142506Y-137716630D01*
X178109176Y-137778038D01*
X178106185Y-137780945D01*
X178100336Y-137786441D01*
X178075126Y-137804756D01*
X177318680Y-138220297D01*
X177250445Y-138235322D01*
X177184919Y-138211071D01*
X177150283Y-138171293D01*
X177149320Y-138169539D01*
X177134311Y-138101300D01*
X177158577Y-138035780D01*
X177198313Y-138001181D01*
X177961571Y-137581898D01*
X178029806Y-137566873D01*
X178095332Y-137591124D01*
G37*
M02*
