M48
; DRILL file {KiCad 8.0.9-8.0.9-0~ubuntu24.04.1} date 2025-06-09T21:45:34+0300
; FORMAT={-:-/ absolute / inch / decimal}
; #@! TF.CreationDate,2025-06-09T21:45:34+03:00
; #@! TF.GenerationSoftware,Kicad,Pcbnew,8.0.9-8.0.9-0~ubuntu24.04.1
; #@! TF.FileFunction,Plated,1,2,PTH
FMAT,2
INCH
; #@! TA.AperFunction,Plated,PTH,ComponentDrill
T1C0.0079
; #@! TA.AperFunction,Plated,PTH,ViaDrill
T2C0.0118
; #@! TA.AperFunction,Plated,PTH,ComponentDrill
T3C0.0118
; #@! TA.AperFunction,Plated,PTH,ViaDrill
T4C0.0197
; #@! TA.AperFunction,Plated,PTH,ComponentDrill
T5C0.0354
; #@! TA.AperFunction,Plated,PTH,ComponentDrill
T6C0.0394
; #@! TA.AperFunction,Plated,PTH,ComponentDrill
T7C0.0433
; #@! TA.AperFunction,Plated,PTH,ComponentDrill
T8C0.0512
%
G90
G05
T1
X6.6495Y-1.8438
X6.6495Y-1.895
X6.6495Y-1.9462
X6.7247Y-1.8438
X6.7247Y-1.895
X6.7247Y-1.9462
T2
X4.3976Y-4.8429
X4.3996Y-5.5169
X4.4055Y-3.0906
X4.4749Y-4.002
X4.498Y-4.1339
X4.5217Y-5.1378
X4.5807Y-2.7469
X4.5807Y-2.8715
X4.5807Y-3.7756
X4.5807Y-4.0433
X4.5807Y-4.4213
X4.5945Y-4.748
X4.626Y-5.1378
X4.6654Y-4.5709
X4.6673Y-3.8937
X4.7087Y-3.9606
X4.7126Y-2.3898
X4.7126Y-2.4488
X4.7126Y-2.7469
X4.7126Y-2.8715
X4.7126Y-3.3071
X4.7185Y-3.502
X4.7362Y-4.0236
X4.7933Y-2.7469
X4.7933Y-2.8715
X4.811Y-2.3858
X4.9132Y-2.5711
X4.9134Y-2.4764
X4.9528Y-3.4528
X4.9882Y-3.5118
X5.0061Y-2.5726
X5.0061Y-2.6701
X5.0061Y-2.9319
X5.0138Y-3.4764
X5.0138Y-3.7165
X5.0138Y-3.8937
X5.0138Y-4.0059
X5.0354Y-3.1929
X5.0492Y-3.4665
X5.0787Y-4.0709
X5.0827Y-3.9331
X5.1004Y-2.435
X5.1122Y-3.5709
X5.1634Y-3.1516
X5.165Y-3.2083
X5.1693Y-2.3878
X5.1693Y-3.7402
X5.1909Y-3.315
X5.1909Y-3.3878
X5.1949Y-3.7638
X5.2076Y-3.0211
X5.2303Y-3.9823
X5.248Y-5.1378
X5.2766Y-3.8219
X5.2807Y-2.8819
X5.2854Y-3.624
X5.3169Y-3.3878
X5.3366Y-3.2815
X5.3465Y-5.1378
X5.3583Y-3.311
X5.372Y-3.2028
X5.3799Y-2.2795
X5.3819Y-5.9764
X5.3898Y-3.8031
X5.3937Y-3.5827
X5.4272Y-4.1476
X5.4439Y-2.8957
X5.4587Y-3.2126
X5.4606Y-3.248
X5.5689Y-3.5689
X5.5787Y-3.5295
X5.5906Y-3.9823
X5.6024Y-2.7244
X5.6142Y-2.7953
X5.6181Y-2.9508
X5.7008Y-3.6516
X5.7087Y-4.1043
X5.7126Y-3.7126
X5.7283Y-4.6929
X5.7924Y-2.1403
X5.7983Y-4.3607
X5.8023Y-2.095
X5.8268Y-3.8917
X5.8642Y-3.2996
X5.874Y-2.5197
X5.874Y-2.7933
X5.9035Y-3.2165
X5.9232Y-2.4789
X5.9665Y-4.2185
X5.9685Y-3.9572
X5.9685Y-4.2657
X6.026Y-2.4787
X6.0276Y-2.5197
X6.0276Y-3.2702
X6.0276Y-3.9572
X6.0276Y-3.9946
X6.0276Y-4.1265
X6.0276Y-4.2347
X6.0276Y-4.2662
X6.0295Y-2.7933
X6.072Y-4.3607
X6.1102Y-1.7362
X6.1929Y-2.4789
X6.1929Y-2.5182
X6.2047Y-2.7224
X6.2047Y-2.7953
X6.2047Y-3.2702
X6.2047Y-4.2933
X6.2106Y-3.19
X6.2106Y-3.9572
X6.2106Y-3.9946
X6.2106Y-4.0852
X6.2106Y-4.1265
X6.2697Y-3.19
X6.2697Y-3.2702
X6.2697Y-3.9572
X6.2697Y-3.9946
X6.2697Y-4.0852
X6.2697Y-4.1265
X6.2854Y-2.7224
X6.2874Y-2.4808
X6.2874Y-2.5182
X6.2874Y-2.7953
X6.3031Y-4.3543
X6.3338Y-3.343
X6.3386Y-4.4685
X6.3425Y-3.0535
X6.3472Y-3.1146
X6.3898Y-4.5669
X6.437Y-5.0276
X6.5827Y-4.6378
X6.6783Y-1.7564
X7.0118Y-4.2505
X7.0444Y-2.595
T3
X5.3914Y-1.7985
X5.3914Y-1.8458
X5.3914Y-1.897
X5.3914Y-1.9403
X5.4386Y-1.7985
X5.4386Y-1.8458
X5.4386Y-1.897
X5.4386Y-1.9403
T4
X5.9193Y-4.9508
X5.9213Y-4.8799
X5.9213Y-4.9173
X5.9646Y-4.9508
X5.9665Y-4.878
X5.9665Y-4.9154
X6.0079Y-4.9154
X6.0098Y-4.878
X6.0118Y-4.9508
X6.0551Y-4.9508
X6.0571Y-4.8799
X6.0571Y-4.9154
X6.9291Y-4.8091
X6.9291Y-4.8543
X6.9291Y-4.8957
X6.9291Y-4.9449
X6.937Y-3.1161
X6.937Y-3.1614
X6.937Y-3.2028
X6.937Y-3.252
X6.9626Y-4.811
X6.9646Y-4.8563
X6.9646Y-4.8976
X6.9646Y-4.9469
X6.9705Y-3.1181
X6.9724Y-3.1634
X6.9724Y-3.2047
X6.9724Y-3.2539
X7.0Y-4.811
X7.0Y-4.9469
X7.002Y-4.8563
X7.002Y-4.8996
X7.0079Y-3.1181
X7.0079Y-3.2539
X7.0098Y-3.1634
X7.0098Y-3.2067
X7.2559Y-1.8543
T5
X5.2303Y-4.2102
X5.3287Y-4.2102
X5.4272Y-4.2102
T6
X4.7126Y-2.2913
X4.8126Y-2.2913
X4.9126Y-2.2913
X5.0126Y-2.2913
X5.1126Y-2.2913
X5.2126Y-2.2913
X5.7677Y-3.1701
X5.7677Y-3.2701
X5.7677Y-3.3701
X5.8613Y-4.7478
X6.7905Y-3.3155
X6.7922Y-4.6765
T7
X5.9912Y-5.5022
X6.0912Y-5.5022
X6.1912Y-5.5022
X6.4124Y-5.5034
X6.5124Y-5.5034
X6.6124Y-5.5034
X6.8333Y-5.5022
X6.9333Y-5.5022
X7.0333Y-5.5022
X7.261Y-5.5034
X7.361Y-5.5034
X7.461Y-5.5034
X7.8933Y-4.6776
X7.8933Y-4.7776
X7.8933Y-4.8776
X7.8937Y-3.8276
X7.8937Y-3.9276
X7.8937Y-4.0276
X7.8937Y-4.2528
X7.8937Y-4.3528
X7.8937Y-4.4528
X7.8945Y-3.3976
X7.8945Y-3.4976
X7.8945Y-3.5976
X7.8957Y-2.1224
X7.8957Y-2.2224
X7.8957Y-2.3224
X7.8957Y-2.5476
X7.8957Y-2.6476
X7.8957Y-2.7476
X7.8957Y-2.9768
X7.8957Y-3.0768
X7.8957Y-3.1768
X7.8963Y-1.6996
X7.8963Y-1.7996
X7.8963Y-1.8996
T8
X4.2656Y-2.6935
X4.2656Y-2.8935
X4.2656Y-3.0935
X4.2736Y-4.4429
X4.2736Y-4.6429
X4.2736Y-4.8429
X4.2756Y-5.1169
X4.2756Y-5.3169
X4.2756Y-5.5169
X4.5827Y-6.1063
X4.7827Y-6.1063
X4.9827Y-6.1063
X5.1827Y-6.1063
X5.3827Y-6.1063
X5.5827Y-6.1063
M30
