%TF.GenerationSoftware,KiCad,Pcbnew,8.0.9-8.0.9-0~ubuntu24.04.1*%
%TF.CreationDate,2025-06-09T21:45:25+03:00*%
%TF.ProjectId,BLDC Motor Driver,424c4443-204d-46f7-946f-722044726976,rev?*%
%TF.SameCoordinates,Original*%
%TF.FileFunction,Copper,L1,Top*%
%TF.FilePolarity,Positive*%
%FSLAX46Y46*%
G04 Gerber Fmt 4.6, Leading zero omitted, Abs format (unit mm)*
G04 Created by KiCad (PCBNEW 8.0.9-8.0.9-0~ubuntu24.04.1) date 2025-06-09 21:45:25*
%MOMM*%
%LPD*%
G01*
G04 APERTURE LIST*
G04 Aperture macros list*
%AMRoundRect*
0 Rectangle with rounded corners*
0 $1 Rounding radius*
0 $2 $3 $4 $5 $6 $7 $8 $9 X,Y pos of 4 corners*
0 Add a 4 corners polygon primitive as box body*
4,1,4,$2,$3,$4,$5,$6,$7,$8,$9,$2,$3,0*
0 Add four circle primitives for the rounded corners*
1,1,$1+$1,$2,$3*
1,1,$1+$1,$4,$5*
1,1,$1+$1,$6,$7*
1,1,$1+$1,$8,$9*
0 Add four rect primitives between the rounded corners*
20,1,$1+$1,$2,$3,$4,$5,0*
20,1,$1+$1,$4,$5,$6,$7,0*
20,1,$1+$1,$6,$7,$8,$9,0*
20,1,$1+$1,$8,$9,$2,$3,0*%
G04 Aperture macros list end*
%TA.AperFunction,SMDPad,CuDef*%
%ADD10RoundRect,0.250000X-0.550000X1.412500X-0.550000X-1.412500X0.550000X-1.412500X0.550000X1.412500X0*%
%TD*%
%TA.AperFunction,SMDPad,CuDef*%
%ADD11RoundRect,0.200000X-0.275000X0.200000X-0.275000X-0.200000X0.275000X-0.200000X0.275000X0.200000X0*%
%TD*%
%TA.AperFunction,ComponentPad*%
%ADD12R,1.700000X1.700000*%
%TD*%
%TA.AperFunction,ComponentPad*%
%ADD13O,1.700000X1.700000*%
%TD*%
%TA.AperFunction,SMDPad,CuDef*%
%ADD14RoundRect,0.200000X-0.200000X-0.275000X0.200000X-0.275000X0.200000X0.275000X-0.200000X0.275000X0*%
%TD*%
%TA.AperFunction,SMDPad,CuDef*%
%ADD15RoundRect,0.250001X2.049999X0.799999X-2.049999X0.799999X-2.049999X-0.799999X2.049999X-0.799999X0*%
%TD*%
%TA.AperFunction,SMDPad,CuDef*%
%ADD16RoundRect,0.073750X-0.531250X-0.221250X0.531250X-0.221250X0.531250X0.221250X-0.531250X0.221250X0*%
%TD*%
%TA.AperFunction,SMDPad,CuDef*%
%ADD17RoundRect,0.250001X-0.799999X2.049999X-0.799999X-2.049999X0.799999X-2.049999X0.799999X2.049999X0*%
%TD*%
%TA.AperFunction,SMDPad,CuDef*%
%ADD18RoundRect,0.150000X-0.150000X0.825000X-0.150000X-0.825000X0.150000X-0.825000X0.150000X0.825000X0*%
%TD*%
%TA.AperFunction,SMDPad,CuDef*%
%ADD19RoundRect,0.200000X0.275000X-0.200000X0.275000X0.200000X-0.275000X0.200000X-0.275000X-0.200000X0*%
%TD*%
%TA.AperFunction,SMDPad,CuDef*%
%ADD20RoundRect,0.250000X0.250000X0.475000X-0.250000X0.475000X-0.250000X-0.475000X0.250000X-0.475000X0*%
%TD*%
%TA.AperFunction,SMDPad,CuDef*%
%ADD21RoundRect,0.150000X0.650000X0.150000X-0.650000X0.150000X-0.650000X-0.150000X0.650000X-0.150000X0*%
%TD*%
%TA.AperFunction,HeatsinkPad*%
%ADD22C,0.500000*%
%TD*%
%TA.AperFunction,HeatsinkPad*%
%ADD23R,2.410000X3.100000*%
%TD*%
%TA.AperFunction,SMDPad,CuDef*%
%ADD24RoundRect,0.140000X0.170000X-0.140000X0.170000X0.140000X-0.170000X0.140000X-0.170000X-0.140000X0*%
%TD*%
%TA.AperFunction,SMDPad,CuDef*%
%ADD25RoundRect,0.375000X-0.375000X0.625000X-0.375000X-0.625000X0.375000X-0.625000X0.375000X0.625000X0*%
%TD*%
%TA.AperFunction,SMDPad,CuDef*%
%ADD26RoundRect,0.500000X-1.400000X0.500000X-1.400000X-0.500000X1.400000X-0.500000X1.400000X0.500000X0*%
%TD*%
%TA.AperFunction,SMDPad,CuDef*%
%ADD27RoundRect,0.250000X0.475000X-0.250000X0.475000X0.250000X-0.475000X0.250000X-0.475000X-0.250000X0*%
%TD*%
%TA.AperFunction,ComponentPad*%
%ADD28R,2.600000X2.600000*%
%TD*%
%TA.AperFunction,ComponentPad*%
%ADD29C,2.600000*%
%TD*%
%TA.AperFunction,SMDPad,CuDef*%
%ADD30RoundRect,0.250000X-0.250000X-0.475000X0.250000X-0.475000X0.250000X0.475000X-0.250000X0.475000X0*%
%TD*%
%TA.AperFunction,ComponentPad*%
%ADD31R,2.000000X1.905000*%
%TD*%
%TA.AperFunction,ComponentPad*%
%ADD32O,2.000000X1.905000*%
%TD*%
%TA.AperFunction,SMDPad,CuDef*%
%ADD33RoundRect,0.200000X0.200000X0.275000X-0.200000X0.275000X-0.200000X-0.275000X0.200000X-0.275000X0*%
%TD*%
%TA.AperFunction,SMDPad,CuDef*%
%ADD34RoundRect,0.225000X-0.225000X-0.250000X0.225000X-0.250000X0.225000X0.250000X-0.225000X0.250000X0*%
%TD*%
%TA.AperFunction,SMDPad,CuDef*%
%ADD35RoundRect,0.225000X-0.250000X0.225000X-0.250000X-0.225000X0.250000X-0.225000X0.250000X0.225000X0*%
%TD*%
%TA.AperFunction,SMDPad,CuDef*%
%ADD36RoundRect,0.150000X0.150000X-0.825000X0.150000X0.825000X-0.150000X0.825000X-0.150000X-0.825000X0*%
%TD*%
%TA.AperFunction,SMDPad,CuDef*%
%ADD37R,0.900000X1.700000*%
%TD*%
%TA.AperFunction,SMDPad,CuDef*%
%ADD38RoundRect,0.250000X-0.475000X0.250000X-0.475000X-0.250000X0.475000X-0.250000X0.475000X0.250000X0*%
%TD*%
%TA.AperFunction,SMDPad,CuDef*%
%ADD39RoundRect,0.150000X0.825000X0.150000X-0.825000X0.150000X-0.825000X-0.150000X0.825000X-0.150000X0*%
%TD*%
%TA.AperFunction,SMDPad,CuDef*%
%ADD40RoundRect,0.250000X-0.450000X0.262500X-0.450000X-0.262500X0.450000X-0.262500X0.450000X0.262500X0*%
%TD*%
%TA.AperFunction,SMDPad,CuDef*%
%ADD41RoundRect,0.140000X0.140000X0.170000X-0.140000X0.170000X-0.140000X-0.170000X0.140000X-0.170000X0*%
%TD*%
%TA.AperFunction,SMDPad,CuDef*%
%ADD42RoundRect,0.250000X1.425000X-0.362500X1.425000X0.362500X-1.425000X0.362500X-1.425000X-0.362500X0*%
%TD*%
%TA.AperFunction,SMDPad,CuDef*%
%ADD43R,2.400000X2.000000*%
%TD*%
%TA.AperFunction,SMDPad,CuDef*%
%ADD44RoundRect,0.112500X0.187500X0.112500X-0.187500X0.112500X-0.187500X-0.112500X0.187500X-0.112500X0*%
%TD*%
%TA.AperFunction,SMDPad,CuDef*%
%ADD45RoundRect,0.150000X-0.825000X-0.150000X0.825000X-0.150000X0.825000X0.150000X-0.825000X0.150000X0*%
%TD*%
%TA.AperFunction,SMDPad,CuDef*%
%ADD46RoundRect,0.112500X-0.112500X0.187500X-0.112500X-0.187500X0.112500X-0.187500X0.112500X0.187500X0*%
%TD*%
%TA.AperFunction,SMDPad,CuDef*%
%ADD47RoundRect,0.250000X0.362500X1.425000X-0.362500X1.425000X-0.362500X-1.425000X0.362500X-1.425000X0*%
%TD*%
%TA.AperFunction,ComponentPad*%
%ADD48R,1.905000X2.000000*%
%TD*%
%TA.AperFunction,ComponentPad*%
%ADD49O,1.905000X2.000000*%
%TD*%
%TA.AperFunction,SMDPad,CuDef*%
%ADD50R,2.260600X0.508000*%
%TD*%
%TA.AperFunction,SMDPad,CuDef*%
%ADD51R,3.987800X2.057400*%
%TD*%
%TA.AperFunction,SMDPad,CuDef*%
%ADD52RoundRect,0.218750X0.218750X0.381250X-0.218750X0.381250X-0.218750X-0.381250X0.218750X-0.381250X0*%
%TD*%
%TA.AperFunction,SMDPad,CuDef*%
%ADD53RoundRect,0.225000X0.225000X0.250000X-0.225000X0.250000X-0.225000X-0.250000X0.225000X-0.250000X0*%
%TD*%
%TA.AperFunction,SMDPad,CuDef*%
%ADD54RoundRect,0.075000X-0.700000X-0.075000X0.700000X-0.075000X0.700000X0.075000X-0.700000X0.075000X0*%
%TD*%
%TA.AperFunction,SMDPad,CuDef*%
%ADD55RoundRect,0.075000X-0.075000X-0.700000X0.075000X-0.700000X0.075000X0.700000X-0.075000X0.700000X0*%
%TD*%
%TA.AperFunction,SMDPad,CuDef*%
%ADD56RoundRect,0.225000X0.250000X-0.225000X0.250000X0.225000X-0.250000X0.225000X-0.250000X-0.225000X0*%
%TD*%
%TA.AperFunction,SMDPad,CuDef*%
%ADD57RoundRect,0.387500X-0.387500X0.777500X-0.387500X-0.777500X0.387500X-0.777500X0.387500X0.777500X0*%
%TD*%
%TA.AperFunction,ComponentPad*%
%ADD58R,1.900000X1.900000*%
%TD*%
%TA.AperFunction,ComponentPad*%
%ADD59C,1.900000*%
%TD*%
%TA.AperFunction,SMDPad,CuDef*%
%ADD60RoundRect,0.218750X0.218750X0.256250X-0.218750X0.256250X-0.218750X-0.256250X0.218750X-0.256250X0*%
%TD*%
%TA.AperFunction,SMDPad,CuDef*%
%ADD61R,1.550000X0.600000*%
%TD*%
%TA.AperFunction,ComponentPad*%
%ADD62C,0.600000*%
%TD*%
%TA.AperFunction,SMDPad,CuDef*%
%ADD63R,2.600000X3.100000*%
%TD*%
%TA.AperFunction,SMDPad,CuDef*%
%ADD64R,2.950000X4.500000*%
%TD*%
%TA.AperFunction,ViaPad*%
%ADD65C,0.600000*%
%TD*%
%TA.AperFunction,ViaPad*%
%ADD66C,0.700000*%
%TD*%
%TA.AperFunction,Conductor*%
%ADD67C,0.500000*%
%TD*%
%TA.AperFunction,Conductor*%
%ADD68C,0.200000*%
%TD*%
%TA.AperFunction,Conductor*%
%ADD69C,0.300000*%
%TD*%
%TA.AperFunction,Conductor*%
%ADD70C,1.000000*%
%TD*%
G04 APERTURE END LIST*
D10*
%TO.P,C33,1*%
%TO.N,+5V*%
X121990489Y-44650537D03*
%TO.P,C33,2*%
%TO.N,GND*%
X121990489Y-49725537D03*
%TD*%
D11*
%TO.P,R23,1*%
%TO.N,/PowerStage/GL_C*%
X167955489Y-135880536D03*
%TO.P,R23,2*%
%TO.N,Net-(MOSFET10-G)*%
X167955489Y-137530536D03*
%TD*%
D12*
%TO.P,J5,1,Pin_1*%
%TO.N,+3.3V*%
X132400000Y-58200000D03*
D13*
%TO.P,J5,2,Pin_2*%
%TO.N,/SWDIO*%
X129860000Y-58200000D03*
%TO.P,J5,3,Pin_3*%
%TO.N,/SWCLK*%
X127320000Y-58200000D03*
%TO.P,J5,4,Pin_4*%
%TO.N,/NRST*%
X124780000Y-58200000D03*
%TO.P,J5,5,Pin_5*%
%TO.N,GND*%
X122240000Y-58200000D03*
%TO.P,J5,6,Pin_6*%
%TO.N,/UART_TX*%
X119700000Y-58200000D03*
%TD*%
D14*
%TO.P,R18,1*%
%TO.N,/PowerStage/GH_B*%
X196600000Y-97250000D03*
%TO.P,R18,2*%
%TO.N,Net-(MOSFET7-G)*%
X198250000Y-97250000D03*
%TD*%
D11*
%TO.P,R32,1*%
%TO.N,/RegulatorStage/VSENSE*%
X117577989Y-47013037D03*
%TO.P,R32,2*%
%TO.N,GND*%
X117577989Y-48663037D03*
%TD*%
D15*
%TO.P,C27,1*%
%TO.N,/POWER*%
X172900000Y-154200000D03*
%TO.P,C27,2*%
%TO.N,/TP_C*%
X164100000Y-154200000D03*
%TD*%
D16*
%TO.P,U1,1*%
%TO.N,/USB_DP*%
X120897500Y-98700000D03*
%TO.P,U1,2*%
%TO.N,GND*%
X120897500Y-99650000D03*
%TO.P,U1,3*%
%TO.N,/USB_DM*%
X120897500Y-100600000D03*
%TO.P,U1,4*%
%TO.N,/OTG_DM*%
X123407500Y-100600000D03*
%TO.P,U1,5*%
%TO.N,+5V*%
X123407500Y-99650000D03*
%TO.P,U1,6*%
%TO.N,/OTG_DP*%
X123407500Y-98700000D03*
%TD*%
D17*
%TO.P,C22,1*%
%TO.N,/POWER*%
X216600000Y-102700000D03*
%TO.P,C22,2*%
%TO.N,/TP_B*%
X216600000Y-111500000D03*
%TD*%
D18*
%TO.P,U5,1,IN-*%
%TO.N,GND*%
X169605489Y-79125536D03*
%TO.P,U5,2,GND*%
X168335489Y-79125536D03*
%TO.P,U5,3,REF2*%
X167065489Y-79125536D03*
%TO.P,U5,4,NC*%
%TO.N,unconnected-(U5-NC-Pad4)*%
X165795489Y-79125536D03*
%TO.P,U5,5,OUT*%
%TO.N,Net-(U5-OUT)*%
X165795489Y-84075536D03*
%TO.P,U5,6,VS*%
%TO.N,+3.3V*%
X167065489Y-84075536D03*
%TO.P,U5,7,REF1*%
X168335489Y-84075536D03*
%TO.P,U5,8,IN+*%
%TO.N,/TP_A*%
X169605489Y-84075536D03*
%TD*%
D19*
%TO.P,R14,1*%
%TO.N,Net-(U5-OUT)*%
X164200489Y-84700536D03*
%TO.P,R14,2*%
%TO.N,/CURR_A*%
X164200489Y-83050536D03*
%TD*%
D20*
%TO.P,C19,1*%
%TO.N,Net-(D3-K)*%
X191817500Y-98452451D03*
%TO.P,C19,2*%
%TO.N,/MOTOR_B*%
X189917500Y-98452451D03*
%TD*%
D21*
%TO.P,U11,1,GND*%
%TO.N,GND*%
X172502989Y-50038037D03*
%TO.P,U11,2,VIN*%
%TO.N,/POWER*%
X172502989Y-48768037D03*
%TO.P,U11,3,EN/UVLO*%
X172502989Y-47498037D03*
%TO.P,U11,4,RON*%
%TO.N,Net-(U11-RON)*%
X172502989Y-46228037D03*
%TO.P,U11,5,FB*%
%TO.N,/RegulatorStage/FB*%
X167202989Y-46228037D03*
%TO.P,U11,6,PGOOD*%
%TO.N,unconnected-(U11-PGOOD-Pad6)*%
X167202989Y-47498037D03*
%TO.P,U11,7,BST*%
%TO.N,/RegulatorStage/BST*%
X167202989Y-48768037D03*
%TO.P,U11,8,SW*%
%TO.N,/RegulatorStage/SW*%
X167202989Y-50038037D03*
D22*
%TO.P,U11,9,EP*%
%TO.N,GND*%
X170807989Y-49433037D03*
X170807989Y-48133037D03*
X170807989Y-46833037D03*
D23*
X169852989Y-48133037D03*
D22*
X168897989Y-49433037D03*
X168897989Y-48133037D03*
X168897989Y-46833037D03*
%TD*%
D24*
%TO.P,C32,1*%
%TO.N,Net-(U10-BOOT)*%
X133240489Y-45568037D03*
%TO.P,C32,2*%
%TO.N,Net-(U10-PH)*%
X133240489Y-44608037D03*
%TD*%
D25*
%TO.P,U12,1,GND*%
%TO.N,GND*%
X145150000Y-54350000D03*
%TO.P,U12,2,VO*%
%TO.N,+3.3V*%
X142850000Y-54350000D03*
D26*
X142850000Y-60650000D03*
D25*
%TO.P,U12,3,VI*%
%TO.N,+5V*%
X140550000Y-54350000D03*
%TD*%
D12*
%TO.P,J6,1,Pin_1*%
%TO.N,/TP_A*%
X172477989Y-84213037D03*
%TD*%
D19*
%TO.P,R6,1*%
%TO.N,/CANH*%
X125130000Y-72185000D03*
%TO.P,R6,2*%
%TO.N,/CANL*%
X125130000Y-70535000D03*
%TD*%
D14*
%TO.P,R19,1*%
%TO.N,/PowerStage/GL_B*%
X196575000Y-118800000D03*
%TO.P,R19,2*%
%TO.N,Net-(MOSFET8-G)*%
X198225000Y-118800000D03*
%TD*%
%TO.P,R5,1*%
%TO.N,Net-(D1-A)*%
X134650000Y-93500000D03*
%TO.P,R5,2*%
%TO.N,/LED_RED*%
X136300000Y-93500000D03*
%TD*%
D27*
%TO.P,C12,1*%
%TO.N,GND*%
X162400489Y-84925536D03*
%TO.P,C12,2*%
%TO.N,/CURR_A*%
X162400489Y-83025536D03*
%TD*%
D11*
%TO.P,R22,1*%
%TO.N,/PowerStage/GH_C*%
X189505489Y-135905536D03*
%TO.P,R22,2*%
%TO.N,Net-(MOSFET9-G)*%
X189505489Y-137555536D03*
%TD*%
D28*
%TO.P,J3,1,Pin_1*%
%TO.N,+5V*%
X108550000Y-112850000D03*
D29*
%TO.P,J3,2,Pin_2*%
%TO.N,Net-(J3-Pin_2)*%
X108550000Y-117930000D03*
%TO.P,J3,3,Pin_3*%
%TO.N,GND*%
X108550000Y-123010000D03*
%TD*%
D30*
%TO.P,C6,1*%
%TO.N,Net-(U2-VCAP_1)*%
X138250000Y-92100000D03*
%TO.P,C6,2*%
%TO.N,GND*%
X140150000Y-92100000D03*
%TD*%
D31*
%TO.P,MOSFET4,1,G*%
%TO.N,Net-(MOSFET4-G)*%
X200550000Y-75610000D03*
D32*
%TO.P,MOSFET4,2,D*%
%TO.N,/MOTOR_A*%
X200550000Y-78150000D03*
%TO.P,MOSFET4,3,S*%
%TO.N,/TP_A*%
X200550000Y-80690000D03*
%TD*%
D27*
%TO.P,C23,1*%
%TO.N,Net-(D4-K)*%
X177480489Y-131010536D03*
%TO.P,C23,2*%
%TO.N,/MOTOR_C*%
X177480489Y-129110536D03*
%TD*%
D14*
%TO.P,R26,1*%
%TO.N,Net-(U9-OUT)*%
X148852989Y-112493037D03*
%TO.P,R26,2*%
%TO.N,/CURR_C*%
X150502989Y-112493037D03*
%TD*%
D33*
%TO.P,R3,1*%
%TO.N,/NRST*%
X121350000Y-85500000D03*
%TO.P,R3,2*%
%TO.N,+3.3V*%
X119700000Y-85500000D03*
%TD*%
D11*
%TO.P,R29,1*%
%TO.N,Net-(U10-EN)*%
X144140489Y-49463037D03*
%TO.P,R29,2*%
%TO.N,GND*%
X144140489Y-51113037D03*
%TD*%
D14*
%TO.P,R12,1*%
%TO.N,/PowerStage/GH_A*%
X196650000Y-53900000D03*
%TO.P,R12,2*%
%TO.N,Net-(MOSFET3-G)*%
X198300000Y-53900000D03*
%TD*%
D10*
%TO.P,C38,1*%
%TO.N,GND*%
X151402989Y-44495537D03*
%TO.P,C38,2*%
%TO.N,+12V*%
X151402989Y-49570537D03*
%TD*%
D34*
%TO.P,C5,1*%
%TO.N,+3.3V*%
X119750000Y-87100000D03*
%TO.P,C5,2*%
%TO.N,GND*%
X121300000Y-87100000D03*
%TD*%
D35*
%TO.P,C3,1*%
%TO.N,/OSC_IN*%
X126700000Y-77825000D03*
%TO.P,C3,2*%
%TO.N,GND*%
X126700000Y-79375000D03*
%TD*%
D36*
%TO.P,U6,1,IN*%
%TO.N,/PWM_B*%
X191812500Y-105702451D03*
%TO.P,U6,2,~{SD}*%
%TO.N,/SD_B*%
X193082500Y-105702451D03*
%TO.P,U6,3,COM*%
%TO.N,GND*%
X194352500Y-105702451D03*
%TO.P,U6,4,LO*%
%TO.N,/PowerStage/GL_B*%
X195622500Y-105702451D03*
%TO.P,U6,5,VCC*%
%TO.N,+12V*%
X195622500Y-100752451D03*
%TO.P,U6,6,VS*%
%TO.N,/MOTOR_B*%
X194352500Y-100752451D03*
%TO.P,U6,7,HO*%
%TO.N,/PowerStage/GH_B*%
X193082500Y-100752451D03*
%TO.P,U6,8,VB*%
%TO.N,Net-(D3-K)*%
X191812500Y-100752451D03*
%TD*%
D27*
%TO.P,C39,1*%
%TO.N,+3.3V*%
X138200000Y-59800000D03*
%TO.P,C39,2*%
%TO.N,GND*%
X138200000Y-57900000D03*
%TD*%
D30*
%TO.P,C18,1*%
%TO.N,GND*%
X163925000Y-110595000D03*
%TO.P,C18,2*%
%TO.N,/CURR_B*%
X165825000Y-110595000D03*
%TD*%
D11*
%TO.P,R24,1*%
%TO.N,/PowerStage/GH_C*%
X178655489Y-135855536D03*
%TO.P,R24,2*%
%TO.N,Net-(MOSFET11-G)*%
X178655489Y-137505536D03*
%TD*%
D37*
%TO.P,SW1,1,1*%
%TO.N,GND*%
X126200000Y-85600000D03*
%TO.P,SW1,2,2*%
%TO.N,/NRST*%
X122800000Y-85600000D03*
%TD*%
D34*
%TO.P,C7,1*%
%TO.N,+3.3V*%
X141175000Y-76025000D03*
%TO.P,C7,2*%
%TO.N,GND*%
X142725000Y-76025000D03*
%TD*%
D38*
%TO.P,C31,1*%
%TO.N,/POWER*%
X174602989Y-48183037D03*
%TO.P,C31,2*%
%TO.N,GND*%
X174602989Y-50083037D03*
%TD*%
D11*
%TO.P,R31,1*%
%TO.N,+5V*%
X117590489Y-43988037D03*
%TO.P,R31,2*%
%TO.N,/RegulatorStage/VSENSE*%
X117590489Y-45638037D03*
%TD*%
D39*
%TO.P,U9,1,IN-*%
%TO.N,GND*%
X153827989Y-117913037D03*
%TO.P,U9,2,GND*%
X153827989Y-116643037D03*
%TO.P,U9,3,REF2*%
X153827989Y-115373037D03*
%TO.P,U9,4,NC*%
%TO.N,unconnected-(U9-NC-Pad4)*%
X153827989Y-114103037D03*
%TO.P,U9,5,OUT*%
%TO.N,Net-(U9-OUT)*%
X148877989Y-114103037D03*
%TO.P,U9,6,VS*%
%TO.N,+3.3V*%
X148877989Y-115373037D03*
%TO.P,U9,7,REF1*%
X148877989Y-116643037D03*
%TO.P,U9,8,IN+*%
%TO.N,/TP_C*%
X148877989Y-117913037D03*
%TD*%
D38*
%TO.P,C28,1*%
%TO.N,+12V*%
X142340489Y-46488037D03*
%TO.P,C28,2*%
%TO.N,GND*%
X142340489Y-48388037D03*
%TD*%
D33*
%TO.P,R33,1*%
%TO.N,/RegulatorStage/SW*%
X164027989Y-45883037D03*
%TO.P,R33,2*%
%TO.N,Net-(C35-Pad2)*%
X162377989Y-45883037D03*
%TD*%
D40*
%TO.P,10k1,1*%
%TO.N,+3.3V*%
X192794511Y-69144464D03*
%TO.P,10k1,2*%
%TO.N,/TEMP*%
X192794511Y-70969464D03*
%TD*%
D14*
%TO.P,R20,1*%
%TO.N,Net-(U7-OUT)*%
X164275000Y-112395000D03*
%TO.P,R20,2*%
%TO.N,/CURR_B*%
X165925000Y-112395000D03*
%TD*%
D31*
%TO.P,MOSFET8,1,G*%
%TO.N,Net-(MOSFET8-G)*%
X200490000Y-118810000D03*
D32*
%TO.P,MOSFET8,2,D*%
%TO.N,/MOTOR_B*%
X200490000Y-121350000D03*
%TO.P,MOSFET8,3,S*%
%TO.N,/TP_B*%
X200490000Y-123890000D03*
%TD*%
D31*
%TO.P,MOSFET1,1,G*%
%TO.N,Net-(MOSFET1-G)*%
X200565000Y-43170000D03*
D32*
%TO.P,MOSFET1,2,D*%
%TO.N,/POWER*%
X200565000Y-45710000D03*
%TO.P,MOSFET1,3,S*%
%TO.N,/MOTOR_A*%
X200565000Y-48250000D03*
%TD*%
D41*
%TO.P,C36,1*%
%TO.N,Net-(C35-Pad2)*%
X162382989Y-44583037D03*
%TO.P,C36,2*%
%TO.N,+12V*%
X161422989Y-44583037D03*
%TD*%
D20*
%TO.P,C21,1*%
%TO.N,+12V*%
X174127989Y-136710536D03*
%TO.P,C21,2*%
%TO.N,GND*%
X172227989Y-136710536D03*
%TD*%
D42*
%TO.P,R27,1*%
%TO.N,/TP_C*%
X152227989Y-134263037D03*
%TO.P,R27,2*%
%TO.N,GND*%
X152227989Y-128338037D03*
%TD*%
D43*
%TO.P,Y1,1,1*%
%TO.N,/OSC_OUT*%
X123972011Y-82066963D03*
%TO.P,Y1,2,2*%
%TO.N,/OSC_IN*%
X123972011Y-78366963D03*
%TD*%
D31*
%TO.P,MOSFET3,1,G*%
%TO.N,Net-(MOSFET3-G)*%
X200550000Y-53910000D03*
D32*
%TO.P,MOSFET3,2,D*%
%TO.N,/POWER*%
X200550000Y-56450000D03*
%TO.P,MOSFET3,3,S*%
%TO.N,/MOTOR_A*%
X200550000Y-58990000D03*
%TD*%
D14*
%TO.P,R2,1*%
%TO.N,Net-(J1-D+)*%
X115975000Y-100450000D03*
%TO.P,R2,2*%
%TO.N,/USB_DP*%
X117625000Y-100450000D03*
%TD*%
D44*
%TO.P,D4,1,K*%
%TO.N,Net-(D4-K)*%
X175180489Y-129210536D03*
%TO.P,D4,2,A*%
%TO.N,+12V*%
X173080489Y-129210536D03*
%TD*%
D45*
%TO.P,U8,1,IN*%
%TO.N,/PWM_C*%
X170250489Y-131020536D03*
%TO.P,U8,2,~{SD}*%
%TO.N,/SD_C*%
X170250489Y-132290536D03*
%TO.P,U8,3,COM*%
%TO.N,GND*%
X170250489Y-133560536D03*
%TO.P,U8,4,LO*%
%TO.N,/PowerStage/GL_C*%
X170250489Y-134830536D03*
%TO.P,U8,5,VCC*%
%TO.N,+12V*%
X175200489Y-134830536D03*
%TO.P,U8,6,VS*%
%TO.N,/MOTOR_C*%
X175200489Y-133560536D03*
%TO.P,U8,7,HO*%
%TO.N,/PowerStage/GH_C*%
X175200489Y-132290536D03*
%TO.P,U8,8,VB*%
%TO.N,Net-(D4-K)*%
X175200489Y-131020536D03*
%TD*%
D38*
%TO.P,C10,1*%
%TO.N,+12V*%
X197526250Y-58357501D03*
%TO.P,C10,2*%
%TO.N,GND*%
X197526250Y-60257501D03*
%TD*%
D46*
%TO.P,D3,1,K*%
%TO.N,Net-(D3-K)*%
X189967500Y-100752451D03*
%TO.P,D3,2,A*%
%TO.N,+12V*%
X189967500Y-102852451D03*
%TD*%
D33*
%TO.P,R30,1*%
%TO.N,Net-(U11-RON)*%
X172477989Y-44633037D03*
%TO.P,R30,2*%
%TO.N,GND*%
X170827989Y-44633037D03*
%TD*%
D11*
%TO.P,R28,1*%
%TO.N,+12V*%
X144140489Y-46413037D03*
%TO.P,R28,2*%
%TO.N,Net-(U10-EN)*%
X144140489Y-48063037D03*
%TD*%
D19*
%TO.P,R34,1*%
%TO.N,+12V*%
X156702989Y-50108037D03*
%TO.P,R34,2*%
%TO.N,/RegulatorStage/FB*%
X156702989Y-48458037D03*
%TD*%
D38*
%TO.P,C30,1*%
%TO.N,/POWER*%
X176652989Y-48183037D03*
%TO.P,C30,2*%
%TO.N,GND*%
X176652989Y-50083037D03*
%TD*%
D47*
%TO.P,R21,1*%
%TO.N,/TP_B*%
X193062500Y-123800000D03*
%TO.P,R21,2*%
%TO.N,GND*%
X187137500Y-123800000D03*
%TD*%
D48*
%TO.P,MOSFET11,1,G*%
%TO.N,Net-(MOSFET11-G)*%
X178645489Y-139755536D03*
D49*
%TO.P,MOSFET11,2,D*%
%TO.N,/POWER*%
X176105489Y-139755536D03*
%TO.P,MOSFET11,3,S*%
%TO.N,/MOTOR_C*%
X173565489Y-139755536D03*
%TD*%
D14*
%TO.P,R10,1*%
%TO.N,/PowerStage/GH_A*%
X196675000Y-43200000D03*
%TO.P,R10,2*%
%TO.N,Net-(MOSFET1-G)*%
X198325000Y-43200000D03*
%TD*%
D20*
%TO.P,C13,1*%
%TO.N,Net-(D2-K)*%
X191796250Y-55000000D03*
%TO.P,C13,2*%
%TO.N,/MOTOR_A*%
X189896250Y-55000000D03*
%TD*%
D39*
%TO.P,U3,1,TXD*%
%TO.N,/CAN_TX*%
X132105000Y-73270000D03*
%TO.P,U3,2,GND*%
%TO.N,GND*%
X132105000Y-72000000D03*
%TO.P,U3,3,VCC*%
%TO.N,+5V*%
X132105000Y-70730000D03*
%TO.P,U3,4,RXD*%
%TO.N,/CAN_RX*%
X132105000Y-69460000D03*
%TO.P,U3,5,VIO*%
%TO.N,+3.3V*%
X127155000Y-69460000D03*
%TO.P,U3,6,CANL*%
%TO.N,/CANL*%
X127155000Y-70730000D03*
%TO.P,U3,7,CANH*%
%TO.N,/CANH*%
X127155000Y-72000000D03*
%TO.P,U3,8,S*%
%TO.N,GND*%
X127155000Y-73270000D03*
%TD*%
D33*
%TO.P,R4,1*%
%TO.N,Net-(R4-Pad1)*%
X135355000Y-103856249D03*
%TO.P,R4,2*%
%TO.N,/BOOT0*%
X133705000Y-103856249D03*
%TD*%
D11*
%TO.P,R9,1*%
%TO.N,/THROTTLE*%
X116700000Y-117875000D03*
%TO.P,R9,2*%
%TO.N,GND*%
X116700000Y-119525000D03*
%TD*%
D48*
%TO.P,MOSFET12,1,G*%
%TO.N,Net-(MOSFET12-G)*%
X157255489Y-139755536D03*
D49*
%TO.P,MOSFET12,2,D*%
%TO.N,/MOTOR_C*%
X154715489Y-139755536D03*
%TO.P,MOSFET12,3,S*%
%TO.N,/TP_C*%
X152175489Y-139755536D03*
%TD*%
D19*
%TO.P,R7,1*%
%TO.N,GND*%
X192844511Y-74119464D03*
%TO.P,R7,2*%
%TO.N,/TEMP*%
X192844511Y-72469464D03*
%TD*%
D28*
%TO.P,J2,1,Pin_1*%
%TO.N,/CANL*%
X108345000Y-68415000D03*
D29*
%TO.P,J2,2,Pin_2*%
%TO.N,/CANH*%
X108345000Y-73495000D03*
%TO.P,J2,3,Pin_3*%
%TO.N,GND*%
X108345000Y-78575000D03*
%TD*%
D36*
%TO.P,U4,1,IN*%
%TO.N,/PWM_A*%
X191836250Y-62250000D03*
%TO.P,U4,2,~{SD}*%
%TO.N,/SD_A*%
X193106250Y-62250000D03*
%TO.P,U4,3,COM*%
%TO.N,GND*%
X194376250Y-62250000D03*
%TO.P,U4,4,LO*%
%TO.N,/PowerStage/GL_A*%
X195646250Y-62250000D03*
%TO.P,U4,5,VCC*%
%TO.N,+12V*%
X195646250Y-57300000D03*
%TO.P,U4,6,VS*%
%TO.N,/MOTOR_A*%
X194376250Y-57300000D03*
%TO.P,U4,7,HO*%
%TO.N,/PowerStage/GH_A*%
X193106250Y-57300000D03*
%TO.P,U4,8,VB*%
%TO.N,Net-(D2-K)*%
X191836250Y-57300000D03*
%TD*%
D12*
%TO.P,J7,1,Pin_1*%
%TO.N,/TP_B*%
X172522011Y-118781963D03*
%TD*%
D14*
%TO.P,R11,1*%
%TO.N,/PowerStage/GL_A*%
X196675000Y-64700000D03*
%TO.P,R11,2*%
%TO.N,Net-(MOSFET2-G)*%
X198325000Y-64700000D03*
%TD*%
D30*
%TO.P,C24,1*%
%TO.N,+3.3V*%
X152377989Y-112243037D03*
%TO.P,C24,2*%
%TO.N,GND*%
X154277989Y-112243037D03*
%TD*%
D17*
%TO.P,C15,1*%
%TO.N,/POWER*%
X216600000Y-59800000D03*
%TO.P,C15,2*%
%TO.N,/TP_A*%
X216600000Y-68600000D03*
%TD*%
D38*
%TO.P,C29,1*%
%TO.N,/POWER*%
X178702989Y-48183037D03*
%TO.P,C29,2*%
%TO.N,GND*%
X178702989Y-50083037D03*
%TD*%
D50*
%TO.P,J1,1,VBUS*%
%TO.N,+5V*%
X111600000Y-98469650D03*
%TO.P,J1,2,D-*%
%TO.N,Net-(J1-D-)*%
X111600000Y-99269650D03*
%TO.P,J1,3,D+*%
%TO.N,Net-(J1-D+)*%
X111600000Y-100069650D03*
%TO.P,J1,4,ID*%
%TO.N,unconnected-(J1-ID-Pad4)*%
X111600000Y-100869650D03*
%TO.P,J1,5,GND*%
%TO.N,GND*%
X111600000Y-101669650D03*
D51*
%TO.P,J1,6*%
%TO.N,N/C*%
X111575000Y-95144650D03*
%TO.P,J1,7*%
X111575000Y-104994650D03*
%TO.P,J1,8*%
X107375000Y-95144650D03*
%TO.P,J1,9*%
X107375000Y-104994650D03*
%TD*%
D41*
%TO.P,C35,1*%
%TO.N,/RegulatorStage/FB*%
X167232989Y-44883037D03*
%TO.P,C35,2*%
%TO.N,Net-(C35-Pad2)*%
X166272989Y-44883037D03*
%TD*%
D52*
%TO.P,L1,1,1*%
%TO.N,Net-(U10-PH)*%
X128452989Y-44638037D03*
%TO.P,L1,2,2*%
%TO.N,+5V*%
X126327989Y-44638037D03*
%TD*%
D17*
%TO.P,C20,1*%
%TO.N,/POWER*%
X216600000Y-88500000D03*
%TO.P,C20,2*%
%TO.N,/TP_B*%
X216600000Y-97300000D03*
%TD*%
D47*
%TO.P,R15,1*%
%TO.N,/TP_A*%
X193062500Y-80650000D03*
%TO.P,R15,2*%
%TO.N,GND*%
X187137500Y-80650000D03*
%TD*%
D53*
%TO.P,C1,1*%
%TO.N,+5V*%
X122877500Y-102200000D03*
%TO.P,C1,2*%
%TO.N,GND*%
X121327500Y-102200000D03*
%TD*%
D11*
%TO.P,R25,1*%
%TO.N,/PowerStage/GL_C*%
X157255489Y-135855536D03*
%TO.P,R25,2*%
%TO.N,Net-(MOSFET12-G)*%
X157255489Y-137505536D03*
%TD*%
D53*
%TO.P,C2,1*%
%TO.N,+5V*%
X122977500Y-97150000D03*
%TO.P,C2,2*%
%TO.N,GND*%
X121427500Y-97150000D03*
%TD*%
D31*
%TO.P,MOSFET7,1,G*%
%TO.N,Net-(MOSFET7-G)*%
X200500000Y-97220000D03*
D32*
%TO.P,MOSFET7,2,D*%
%TO.N,/POWER*%
X200500000Y-99760000D03*
%TO.P,MOSFET7,3,S*%
%TO.N,/MOTOR_B*%
X200500000Y-102300000D03*
%TD*%
D14*
%TO.P,R13,1*%
%TO.N,/PowerStage/GL_A*%
X196650000Y-75600000D03*
%TO.P,R13,2*%
%TO.N,Net-(MOSFET4-G)*%
X198300000Y-75600000D03*
%TD*%
D30*
%TO.P,C25,1*%
%TO.N,GND*%
X148577989Y-110693037D03*
%TO.P,C25,2*%
%TO.N,/CURR_C*%
X150477989Y-110693037D03*
%TD*%
D46*
%TO.P,D2,1,K*%
%TO.N,Net-(D2-K)*%
X190026250Y-57275000D03*
%TO.P,D2,2,A*%
%TO.N,+12V*%
X190026250Y-59375000D03*
%TD*%
D14*
%TO.P,R17,1*%
%TO.N,/PowerStage/GL_B*%
X196575000Y-108000000D03*
%TO.P,R17,2*%
%TO.N,Net-(MOSFET6-G)*%
X198225000Y-108000000D03*
%TD*%
D48*
%TO.P,MOSFET10,1,G*%
%TO.N,Net-(MOSFET10-G)*%
X167955489Y-139785536D03*
D49*
%TO.P,MOSFET10,2,D*%
%TO.N,/MOTOR_C*%
X165415489Y-139785536D03*
%TO.P,MOSFET10,3,S*%
%TO.N,/TP_C*%
X162875489Y-139785536D03*
%TD*%
D24*
%TO.P,C34,1*%
%TO.N,/RegulatorStage/SW*%
X165602989Y-50063037D03*
%TO.P,C34,2*%
%TO.N,/RegulatorStage/BST*%
X165602989Y-49103037D03*
%TD*%
D33*
%TO.P,R1,1*%
%TO.N,/USB_DM*%
X117625000Y-98900000D03*
%TO.P,R1,2*%
%TO.N,Net-(J1-D-)*%
X115975000Y-98900000D03*
%TD*%
D48*
%TO.P,MOSFET9,1,G*%
%TO.N,Net-(MOSFET9-G)*%
X189510489Y-139785536D03*
D49*
%TO.P,MOSFET9,2,D*%
%TO.N,/POWER*%
X186970489Y-139785536D03*
%TO.P,MOSFET9,3,S*%
%TO.N,/MOTOR_C*%
X184430489Y-139785536D03*
%TD*%
D31*
%TO.P,MOSFET2,1,G*%
%TO.N,Net-(MOSFET2-G)*%
X200550000Y-64710000D03*
D32*
%TO.P,MOSFET2,2,D*%
%TO.N,/MOTOR_A*%
X200550000Y-67250000D03*
%TO.P,MOSFET2,3,S*%
%TO.N,/TP_A*%
X200550000Y-69790000D03*
%TD*%
D54*
%TO.P,U2,1,VBAT*%
%TO.N,+3.3V*%
X129850000Y-80050000D03*
%TO.P,U2,2,PC13*%
%TO.N,unconnected-(U2-PC13-Pad2)*%
X129850000Y-80550000D03*
%TO.P,U2,3,PC14*%
%TO.N,unconnected-(U2-PC14-Pad3)*%
X129850000Y-81050000D03*
%TO.P,U2,4,PC15*%
%TO.N,unconnected-(U2-PC15-Pad4)*%
X129850000Y-81550000D03*
%TO.P,U2,5,PH0(OSC_IN)*%
%TO.N,/OSC_IN*%
X129850000Y-82050000D03*
%TO.P,U2,6,PH1(OSC_OUT)*%
%TO.N,/OSC_OUT*%
X129850000Y-82550000D03*
%TO.P,U2,7,NRST*%
%TO.N,/NRST*%
X129850000Y-83050000D03*
%TO.P,U2,8,PC0(ADC1_IN10)*%
%TO.N,/TEMP*%
X129850000Y-83550000D03*
%TO.P,U2,9,PC1(ADC1_IN11)*%
%TO.N,unconnected-(U2-PC1-Pad9)*%
X129850000Y-84050000D03*
%TO.P,U2,10,PC2(ADC1_IN12)*%
%TO.N,unconnected-(U2-PC2-Pad10)*%
X129850000Y-84550000D03*
%TO.P,U2,11,PC3*%
%TO.N,unconnected-(U2-PC3-Pad11)*%
X129850000Y-85050000D03*
%TO.P,U2,12,VSSA*%
%TO.N,GND*%
X129850000Y-85550000D03*
%TO.P,U2,13,VDDA*%
%TO.N,+3.3V*%
X129850000Y-86050000D03*
%TO.P,U2,14,PA0*%
%TO.N,unconnected-(U2-PA0-Pad14)*%
X129850000Y-86550000D03*
%TO.P,U2,15,PA1(ADC1_IN1)*%
%TO.N,/CURR_A*%
X129850000Y-87050000D03*
%TO.P,U2,16,PA2(ADC1_IN2)*%
%TO.N,/CURR_B*%
X129850000Y-87550000D03*
D55*
%TO.P,U2,17,PA3(ADC1_IN3)*%
%TO.N,/CURR_C*%
X131775000Y-89475000D03*
%TO.P,U2,18,VSS*%
%TO.N,GND*%
X132275000Y-89475000D03*
%TO.P,U2,19,VDD*%
%TO.N,+3.3V*%
X132775000Y-89475000D03*
%TO.P,U2,20,PA4(ADC1_IN4)*%
%TO.N,/THROTTLE*%
X133275000Y-89475000D03*
%TO.P,U2,21,PA5*%
%TO.N,unconnected-(U2-PA5-Pad21)*%
X133775000Y-89475000D03*
%TO.P,U2,22,PA6(TIM3_CH1)*%
%TO.N,/FAN*%
X134275000Y-89475000D03*
%TO.P,U2,23,PA7*%
%TO.N,unconnected-(U2-PA7-Pad23)*%
X134775000Y-89475000D03*
%TO.P,U2,24,PC4*%
%TO.N,unconnected-(U2-PC4-Pad24)*%
X135275000Y-89475000D03*
%TO.P,U2,25,PC5*%
%TO.N,unconnected-(U2-PC5-Pad25)*%
X135775000Y-89475000D03*
%TO.P,U2,26,PB0*%
%TO.N,/LED_RED*%
X136275000Y-89475000D03*
%TO.P,U2,27,PB1*%
%TO.N,unconnected-(U2-PB1-Pad27)*%
X136775000Y-89475000D03*
%TO.P,U2,28,PB2*%
%TO.N,unconnected-(U2-PB2-Pad28)*%
X137275000Y-89475000D03*
%TO.P,U2,29,PB10(USART3_TX)*%
%TO.N,/UART_TX*%
X137775000Y-89475000D03*
%TO.P,U2,30,VCAP_1*%
%TO.N,Net-(U2-VCAP_1)*%
X138275000Y-89475000D03*
%TO.P,U2,31,VSS*%
%TO.N,GND*%
X138775000Y-89475000D03*
%TO.P,U2,32,VDD*%
%TO.N,+3.3V*%
X139275000Y-89475000D03*
D54*
%TO.P,U2,33,PB12*%
%TO.N,unconnected-(U2-PB12-Pad33)*%
X141200000Y-87550000D03*
%TO.P,U2,34,PB13*%
%TO.N,unconnected-(U2-PB13-Pad34)*%
X141200000Y-87050000D03*
%TO.P,U2,35,PB14*%
%TO.N,unconnected-(U2-PB14-Pad35)*%
X141200000Y-86550000D03*
%TO.P,U2,36,PB15*%
%TO.N,unconnected-(U2-PB15-Pad36)*%
X141200000Y-86050000D03*
%TO.P,U2,37,PC6*%
%TO.N,/HALL_A*%
X141200000Y-85550000D03*
%TO.P,U2,38,PC7*%
%TO.N,/HALL_B*%
X141200000Y-85050000D03*
%TO.P,U2,39,PC8*%
%TO.N,/HALL_C*%
X141200000Y-84550000D03*
%TO.P,U2,40,PC9*%
%TO.N,unconnected-(U2-PC9-Pad40)*%
X141200000Y-84050000D03*
%TO.P,U2,41,PA8(TIM1_CH1)*%
%TO.N,/PWM_A*%
X141200000Y-83550000D03*
%TO.P,U2,42,PA9(TIM1_CH2)*%
%TO.N,/PWM_B*%
X141200000Y-83050000D03*
%TO.P,U2,43,PA10(TIM1_CH3)*%
%TO.N,/PWM_C*%
X141200000Y-82550000D03*
%TO.P,U2,44,PA11(OTG_DM)*%
%TO.N,/OTG_DM*%
X141200000Y-82050000D03*
%TO.P,U2,45,PA12(OTG_DP)*%
%TO.N,/OTG_DP*%
X141200000Y-81550000D03*
%TO.P,U2,46,PA13((SWDIO))*%
%TO.N,/SWDIO*%
X141200000Y-81050000D03*
%TO.P,U2,47,VSS*%
%TO.N,GND*%
X141200000Y-80550000D03*
%TO.P,U2,48,VDD*%
%TO.N,+3.3V*%
X141200000Y-80050000D03*
D55*
%TO.P,U2,49,PA14(SWCLK)*%
%TO.N,/SWCLK*%
X139275000Y-78125000D03*
%TO.P,U2,50,PA15*%
%TO.N,unconnected-(U2-PA15-Pad50)*%
X138775000Y-78125000D03*
%TO.P,U2,51,PC10*%
%TO.N,/SD_A*%
X138275000Y-78125000D03*
%TO.P,U2,52,PC11*%
%TO.N,/SD_B*%
X137775000Y-78125000D03*
%TO.P,U2,53,PC12*%
%TO.N,/SD_C*%
X137275000Y-78125000D03*
%TO.P,U2,54,PD2*%
%TO.N,unconnected-(U2-PD2-Pad54)*%
X136775000Y-78125000D03*
%TO.P,U2,55,PB3*%
%TO.N,unconnected-(U2-PB3-Pad55)*%
X136275000Y-78125000D03*
%TO.P,U2,56,PB4*%
%TO.N,unconnected-(U2-PB4-Pad56)*%
X135775000Y-78125000D03*
%TO.P,U2,57,PB5(CAN2_RX)*%
%TO.N,/CAN_RX*%
X135275000Y-78125000D03*
%TO.P,U2,58,PB6(CAN2_TX)*%
%TO.N,/CAN_TX*%
X134775000Y-78125000D03*
%TO.P,U2,59,PB7*%
%TO.N,unconnected-(U2-PB7-Pad59)*%
X134275000Y-78125000D03*
%TO.P,U2,60,BOOT0*%
%TO.N,/BOOT0*%
X133775000Y-78125000D03*
%TO.P,U2,61,PB8*%
%TO.N,unconnected-(U2-PB8-Pad61)*%
X133275000Y-78125000D03*
%TO.P,U2,62,PB9*%
%TO.N,unconnected-(U2-PB9-Pad62)*%
X132775000Y-78125000D03*
%TO.P,U2,63,VSS*%
%TO.N,GND*%
X132275000Y-78125000D03*
%TO.P,U2,64,VDD*%
%TO.N,+3.3V*%
X131775000Y-78125000D03*
%TD*%
D30*
%TO.P,C17,1*%
%TO.N,+3.3V*%
X167425000Y-112145000D03*
%TO.P,C17,2*%
%TO.N,GND*%
X169325000Y-112145000D03*
%TD*%
D28*
%TO.P,J4,1,Pin_1*%
%TO.N,+5V*%
X116400000Y-155100000D03*
D29*
%TO.P,J4,2,Pin_2*%
%TO.N,/HALL_A*%
X121480000Y-155100000D03*
%TO.P,J4,3,Pin_3*%
%TO.N,/HALL_B*%
X126560000Y-155100000D03*
%TO.P,J4,4,Pin_4*%
%TO.N,/HALL_C*%
X131640000Y-155100000D03*
%TO.P,J4,5,Pin_5*%
%TO.N,GND*%
X136720000Y-155100000D03*
%TO.P,J4,6,Pin_6*%
%TO.N,unconnected-(J4-Pin_6-Pad6)*%
X141800000Y-155100000D03*
%TD*%
D15*
%TO.P,C26,1*%
%TO.N,/POWER*%
X187000000Y-154200000D03*
%TO.P,C26,2*%
%TO.N,/TP_C*%
X178200000Y-154200000D03*
%TD*%
D17*
%TO.P,C14,1*%
%TO.N,/POWER*%
X216600000Y-45700000D03*
%TO.P,C14,2*%
%TO.N,/TP_A*%
X216600000Y-54500000D03*
%TD*%
D27*
%TO.P,C11,1*%
%TO.N,+3.3V*%
X163895489Y-81025536D03*
%TO.P,C11,2*%
%TO.N,GND*%
X163895489Y-79125536D03*
%TD*%
D35*
%TO.P,C9,1*%
%TO.N,+5V*%
X134130000Y-70585000D03*
%TO.P,C9,2*%
%TO.N,GND*%
X134130000Y-72135000D03*
%TD*%
D56*
%TO.P,C4,1*%
%TO.N,/OSC_OUT*%
X126700000Y-82600000D03*
%TO.P,C4,2*%
%TO.N,GND*%
X126700000Y-81050000D03*
%TD*%
D31*
%TO.P,MOSFET5,1,G*%
%TO.N,Net-(MOSFET5-G)*%
X200520000Y-86300000D03*
D32*
%TO.P,MOSFET5,2,D*%
%TO.N,/POWER*%
X200520000Y-88840000D03*
%TO.P,MOSFET5,3,S*%
%TO.N,/MOTOR_B*%
X200520000Y-91380000D03*
%TD*%
D57*
%TO.P,D5,A*%
%TO.N,GND*%
X130940489Y-48923037D03*
%TO.P,D5,C*%
%TO.N,Net-(U10-PH)*%
X130940489Y-44653037D03*
%TD*%
D19*
%TO.P,R35,1*%
%TO.N,/RegulatorStage/FB*%
X156702989Y-47083037D03*
%TO.P,R35,2*%
%TO.N,GND*%
X156702989Y-45433037D03*
%TD*%
D12*
%TO.P,J8,1,Pin_1*%
%TO.N,/TP_C*%
X148877989Y-120593037D03*
%TD*%
D39*
%TO.P,U7,1,IN-*%
%TO.N,GND*%
X169200000Y-117800000D03*
%TO.P,U7,2,GND*%
X169200000Y-116530000D03*
%TO.P,U7,3,REF2*%
X169200000Y-115260000D03*
%TO.P,U7,4,NC*%
%TO.N,unconnected-(U7-NC-Pad4)*%
X169200000Y-113990000D03*
%TO.P,U7,5,OUT*%
%TO.N,Net-(U7-OUT)*%
X164250000Y-113990000D03*
%TO.P,U7,6,VS*%
%TO.N,+3.3V*%
X164250000Y-115260000D03*
%TO.P,U7,7,REF1*%
X164250000Y-116530000D03*
%TO.P,U7,8,IN+*%
%TO.N,/TP_B*%
X164250000Y-117800000D03*
%TD*%
D31*
%TO.P,MOSFET6,1,G*%
%TO.N,Net-(MOSFET6-G)*%
X200500000Y-108020000D03*
D32*
%TO.P,MOSFET6,2,D*%
%TO.N,/MOTOR_B*%
X200500000Y-110560000D03*
%TO.P,MOSFET6,3,S*%
%TO.N,/TP_B*%
X200500000Y-113100000D03*
%TD*%
D38*
%TO.P,C37,1*%
%TO.N,+5V*%
X138200000Y-54400000D03*
%TO.P,C37,2*%
%TO.N,GND*%
X138200000Y-56300000D03*
%TD*%
D11*
%TO.P,R8,1*%
%TO.N,Net-(J3-Pin_2)*%
X115100000Y-117875000D03*
%TO.P,R8,2*%
%TO.N,/THROTTLE*%
X115100000Y-119525000D03*
%TD*%
D58*
%TO.P,S1,1*%
%TO.N,+3.3V*%
X132850000Y-106938750D03*
D59*
%TO.P,S1,2*%
%TO.N,Net-(R4-Pad1)*%
X135350000Y-106938750D03*
%TO.P,S1,3*%
%TO.N,GND*%
X137850000Y-106938750D03*
%TD*%
D12*
%TO.P,J9,1,Pin_1*%
%TO.N,/PWM_A*%
X146500000Y-85600000D03*
D13*
%TO.P,J9,2,Pin_2*%
%TO.N,/PWM_B*%
X146500000Y-83060000D03*
%TO.P,J9,3,Pin_3*%
%TO.N,/PWM_C*%
X146500000Y-80520000D03*
%TD*%
D14*
%TO.P,R16,1*%
%TO.N,/PowerStage/GH_B*%
X196625000Y-86300000D03*
%TO.P,R16,2*%
%TO.N,Net-(MOSFET5-G)*%
X198275000Y-86300000D03*
%TD*%
D34*
%TO.P,C8,1*%
%TO.N,+3.3V*%
X141200000Y-77575000D03*
%TO.P,C8,2*%
%TO.N,GND*%
X142750000Y-77575000D03*
%TD*%
D60*
%TO.P,D1,1,K*%
%TO.N,GND*%
X136287500Y-95200000D03*
%TO.P,D1,2,A*%
%TO.N,Net-(D1-A)*%
X134712500Y-95200000D03*
%TD*%
D28*
%TO.P,J10,1,Pin_1*%
%TO.N,+12V*%
X108600000Y-129970000D03*
D29*
%TO.P,J10,2,Pin_2*%
%TO.N,/FAN*%
X108600000Y-135050000D03*
%TO.P,J10,3,Pin_3*%
%TO.N,GND*%
X108600000Y-140130000D03*
%TD*%
D61*
%TO.P,U10,1,BOOT*%
%TO.N,Net-(U10-BOOT)*%
X134840489Y-45578037D03*
%TO.P,U10,2,NC*%
%TO.N,unconnected-(U10-NC-Pad2)*%
X134840489Y-46848037D03*
%TO.P,U10,3,NC*%
%TO.N,unconnected-(U10-NC-Pad3)*%
X134840489Y-48118037D03*
%TO.P,U10,4,VSENSE*%
%TO.N,/RegulatorStage/VSENSE*%
X134840489Y-49388037D03*
%TO.P,U10,5,EN*%
%TO.N,Net-(U10-EN)*%
X140240489Y-49388037D03*
%TO.P,U10,6,GND*%
%TO.N,GND*%
X140240489Y-48118037D03*
%TO.P,U10,7,VIN*%
%TO.N,+12V*%
X140240489Y-46848037D03*
%TO.P,U10,8,PH*%
%TO.N,Net-(U10-PH)*%
X140240489Y-45578037D03*
D62*
%TO.P,U10,9,GNDPAD*%
%TO.N,GND*%
X136940489Y-45683037D03*
X136940489Y-46883037D03*
X136940489Y-48183037D03*
X136940489Y-49283037D03*
D63*
X137540489Y-47483037D03*
D64*
X137540489Y-47483037D03*
D62*
X138140489Y-45683037D03*
X138140489Y-46883037D03*
X138140489Y-48183037D03*
X138140489Y-49283037D03*
%TD*%
D52*
%TO.P,L2,1,1*%
%TO.N,/RegulatorStage/SW*%
X162762500Y-50083037D03*
%TO.P,L2,2,2*%
%TO.N,+12V*%
X160637500Y-50083037D03*
%TD*%
D38*
%TO.P,C16,1*%
%TO.N,+12V*%
X197467500Y-101915002D03*
%TO.P,C16,2*%
%TO.N,GND*%
X197467500Y-103815002D03*
%TD*%
D65*
%TO.N,+3.3V*%
X127155000Y-67820000D03*
X129550000Y-61850000D03*
X131850000Y-84200000D03*
X157750000Y-81025536D03*
X135050000Y-86050000D03*
X131300000Y-60650000D03*
X131150000Y-80050000D03*
X157600000Y-69150000D03*
X157750000Y-103763037D03*
X159250000Y-81025536D03*
X159650000Y-69150000D03*
X131850000Y-86050000D03*
X159250000Y-103763037D03*
X129100000Y-99900000D03*
X127155000Y-65345000D03*
%TO.N,+5V*%
X116350000Y-102700000D03*
X116350000Y-72935000D03*
X116350000Y-112300000D03*
X116350000Y-95900000D03*
X118500000Y-116100000D03*
X116350000Y-69770000D03*
%TO.N,GND*%
X147127989Y-54363037D03*
X154227989Y-110763037D03*
X113662500Y-101650000D03*
D66*
X151500000Y-125750000D03*
D65*
X136650000Y-57900000D03*
D66*
X153850000Y-124850000D03*
X178000000Y-82650000D03*
D65*
X122200000Y-60600000D03*
D66*
X177100000Y-80350000D03*
D65*
X147377989Y-53213037D03*
D66*
X176900000Y-123350000D03*
D65*
X127155000Y-74470000D03*
X178100000Y-107963037D03*
D66*
X150400000Y-123950000D03*
D65*
X137850000Y-105350000D03*
D66*
X152700000Y-125750000D03*
X176200000Y-82600000D03*
X176000000Y-125600000D03*
D65*
X134130000Y-73200000D03*
D66*
X152650000Y-123900000D03*
D65*
X132272011Y-76736963D03*
X136700000Y-151800000D03*
X160100000Y-110600000D03*
D66*
X177100000Y-82650000D03*
X176900000Y-124400000D03*
X176000000Y-123300000D03*
X176200000Y-81350000D03*
X151550000Y-124850000D03*
D65*
X125800000Y-87700000D03*
D66*
X176900000Y-125650000D03*
X151550000Y-123900000D03*
X176000000Y-124350000D03*
D65*
X161220000Y-79110000D03*
D66*
X176200000Y-79150000D03*
X177050000Y-79200000D03*
X178050000Y-80350000D03*
D65*
X169627989Y-44613037D03*
D66*
X152600000Y-124850000D03*
X178000000Y-79200000D03*
X177100000Y-81400000D03*
D65*
X178927989Y-65913037D03*
D66*
X177850000Y-123350000D03*
X177800000Y-122200000D03*
D65*
X167200000Y-117800000D03*
X111700000Y-123010000D03*
X142700000Y-74950000D03*
X162300000Y-116000000D03*
X120300000Y-102200000D03*
D66*
X178050000Y-81450000D03*
X153800000Y-125750000D03*
D65*
X163500000Y-127700000D03*
X155200000Y-44100000D03*
D66*
X150400000Y-124900000D03*
D65*
X127900000Y-81100000D03*
X160877989Y-84913037D03*
D66*
X153850000Y-123950000D03*
D65*
X111900000Y-78500000D03*
X116700000Y-120600000D03*
X161100000Y-77560000D03*
D66*
X150350000Y-125750000D03*
D65*
X114250000Y-105000000D03*
X147277989Y-110763037D03*
X136900000Y-96600000D03*
D66*
X177800000Y-125650000D03*
X176000000Y-122150000D03*
D65*
X131950000Y-95600000D03*
D66*
X177850000Y-124450000D03*
D65*
X111750000Y-140130000D03*
D66*
X176850000Y-122200000D03*
X176200000Y-80300000D03*
D65*
X161000000Y-113500000D03*
%TO.N,+12V*%
X135800000Y-130500000D03*
X157600000Y-109050000D03*
X117500000Y-130500000D03*
X145500000Y-119200000D03*
X114850000Y-130500000D03*
X133300000Y-130500000D03*
%TO.N,/CURR_A*%
X159250000Y-83063037D03*
X153100000Y-83063037D03*
X128250000Y-88050000D03*
X157600000Y-83063037D03*
D66*
%TO.N,/POWER*%
X184300000Y-47100000D03*
D65*
%TO.N,/CURR_B*%
X142000000Y-101150000D03*
X159250000Y-104813037D03*
X153100000Y-104813037D03*
X132850000Y-101150000D03*
X129850000Y-90700000D03*
X157750000Y-104813037D03*
%TO.N,/CURR_C*%
X131300000Y-95000000D03*
X145000000Y-104250000D03*
%TO.N,/NRST*%
X124794669Y-65305331D03*
X121750000Y-69770000D03*
X124800000Y-62900000D03*
X121750000Y-72935000D03*
%TO.N,/PWM_A*%
X149950000Y-81700000D03*
X153060400Y-62959516D03*
X150450000Y-62963037D03*
X159700000Y-63013037D03*
X157300000Y-62963037D03*
%TO.N,/PWM_B*%
X153100000Y-100513037D03*
X151600000Y-100513037D03*
X157750000Y-100513037D03*
X159250000Y-100513037D03*
%TO.N,/PWM_C*%
X148950000Y-83810000D03*
X151550000Y-107150000D03*
X153100000Y-107561348D03*
%TO.N,/USB_DM*%
X119600000Y-100600000D03*
X118550000Y-98900000D03*
%TO.N,/BOOT0*%
X129000000Y-103400000D03*
X127350000Y-94400000D03*
X127350000Y-88300000D03*
X127350000Y-101750000D03*
X131190381Y-81490381D03*
X127350000Y-98900000D03*
%TO.N,/OTG_DM*%
X136100000Y-84100000D03*
X138700000Y-82500000D03*
%TO.N,/OTG_DP*%
X135550000Y-83350000D03*
X138650000Y-81600000D03*
%TO.N,/SD_A*%
X153100000Y-64000000D03*
X157300000Y-63963037D03*
X149200000Y-64000000D03*
X159700000Y-63963037D03*
X138275000Y-73550000D03*
X142300000Y-69200000D03*
%TO.N,/SD_B*%
X159250000Y-101463037D03*
X153100000Y-101463037D03*
X144800000Y-92750000D03*
X157750000Y-101463037D03*
X141700000Y-89650000D03*
X148000000Y-98850000D03*
%TO.N,/SD_C*%
X153100000Y-108361351D03*
X145100000Y-94300000D03*
X141450000Y-90650000D03*
X151600000Y-108350000D03*
%TO.N,/FAN*%
X134025000Y-97075000D03*
X134250000Y-92050000D03*
%TO.N,/UART_TX*%
X119700000Y-62200000D03*
X119700000Y-60700000D03*
X119700000Y-72935000D03*
X119700000Y-84000000D03*
X119700000Y-69770000D03*
X137000000Y-91000000D03*
X119850000Y-88950000D03*
X126700000Y-89200000D03*
%TO.N,/TEMP*%
X142600000Y-71000000D03*
X159700000Y-71000000D03*
X153150000Y-70950000D03*
X136450000Y-81350000D03*
X149200000Y-70950000D03*
X157600000Y-71000000D03*
%TD*%
D67*
%TO.N,+3.3V*%
X141150000Y-76000000D02*
X141175000Y-76025000D01*
X152377989Y-112243037D02*
X152377989Y-112968037D01*
X189200000Y-69150000D02*
X189205536Y-69144464D01*
X149972989Y-115373037D02*
X148877989Y-115373037D01*
D68*
X131150000Y-80050000D02*
X129850000Y-80050000D01*
X133292590Y-88150000D02*
X132775000Y-88667590D01*
D67*
X148877989Y-115373037D02*
X148877989Y-116643037D01*
D69*
X119750000Y-87930761D02*
X119750000Y-87100000D01*
X130255000Y-71520000D02*
X130255000Y-76605000D01*
D67*
X167065489Y-83100537D02*
X164990488Y-81025536D01*
X164990488Y-81025536D02*
X163895489Y-81025536D01*
X153375536Y-81025536D02*
X152350000Y-80000000D01*
X152350000Y-102700000D02*
X152350000Y-80000000D01*
D69*
X130255000Y-76605000D02*
X131775000Y-78125000D01*
X129850000Y-86050000D02*
X128650000Y-86050000D01*
X120219239Y-88400000D02*
X119750000Y-87930761D01*
D67*
X141150000Y-62350000D02*
X141150000Y-76000000D01*
X152350000Y-80000000D02*
X152350000Y-66850000D01*
X189200000Y-69150000D02*
X159650000Y-69150000D01*
X138200000Y-59800000D02*
X139050000Y-60650000D01*
X168335489Y-84075536D02*
X167065489Y-84075536D01*
X157750000Y-103763037D02*
X153413037Y-103763037D01*
X167425000Y-110473122D02*
X167425000Y-112145000D01*
D69*
X128650000Y-86050000D02*
X126300000Y-88400000D01*
D67*
X163895489Y-81025536D02*
X159250000Y-81025536D01*
X149800000Y-60650000D02*
X142850000Y-60650000D01*
D68*
X131250000Y-86050000D02*
X131850000Y-85450000D01*
D69*
X132400000Y-58750000D02*
X134300000Y-60650000D01*
D67*
X159250000Y-103763037D02*
X159300000Y-103813037D01*
D69*
X126300000Y-88400000D02*
X120219239Y-88400000D01*
X128195000Y-69460000D02*
X130255000Y-71520000D01*
D67*
X157600000Y-69150000D02*
X154650000Y-69150000D01*
X134300000Y-60650000D02*
X132540000Y-60650000D01*
X152377989Y-112968037D02*
X149972989Y-115373037D01*
X164250000Y-115260000D02*
X165224999Y-115260000D01*
X152350000Y-66850000D02*
X152350000Y-63200000D01*
D69*
X119700000Y-85500000D02*
X119700000Y-87050000D01*
D68*
X138856498Y-88150000D02*
X133400000Y-88150000D01*
D67*
X167065489Y-84075536D02*
X167065489Y-83100537D01*
X142850000Y-60650000D02*
X141150000Y-62350000D01*
X152350000Y-102700000D02*
X152350000Y-112215048D01*
X129550000Y-61850000D02*
X127155000Y-64245000D01*
X165224999Y-115260000D02*
X167425000Y-113059999D01*
D69*
X141200000Y-80050000D02*
X141200000Y-77575000D01*
D67*
X159300000Y-103813037D02*
X160764915Y-103813037D01*
X127155000Y-64245000D02*
X127155000Y-65345000D01*
D68*
X131250000Y-86050000D02*
X131850000Y-86050000D01*
D67*
X119700000Y-87050000D02*
X119750000Y-87100000D01*
X142850000Y-60650000D02*
X134300000Y-60650000D01*
D69*
X141200000Y-77575000D02*
X141200000Y-76050000D01*
D68*
X131850000Y-85450000D02*
X131850000Y-84200000D01*
D69*
X129100000Y-99900000D02*
X132775000Y-96225000D01*
D67*
X142850000Y-54350000D02*
X142850000Y-60650000D01*
X164250000Y-116530000D02*
X164250000Y-115260000D01*
X167425000Y-113059999D02*
X167425000Y-112145000D01*
D69*
X141175000Y-77550000D02*
X141200000Y-77575000D01*
D68*
X135050000Y-86050000D02*
X136756498Y-86050000D01*
D67*
X189205536Y-69144464D02*
X192794511Y-69144464D01*
D68*
X132775000Y-88667590D02*
X132775000Y-89475000D01*
D69*
X132400000Y-58200000D02*
X132400000Y-58750000D01*
D67*
X153413037Y-103763037D02*
X152350000Y-102700000D01*
X157750000Y-81025536D02*
X153375536Y-81025536D01*
D68*
X136756498Y-86050000D02*
X138856498Y-88150000D01*
D69*
X132775000Y-96225000D02*
X132775000Y-89475000D01*
D68*
X139275000Y-88568502D02*
X138856498Y-88150000D01*
D69*
X129850000Y-80050000D02*
X131775000Y-78125000D01*
D67*
X152350000Y-63200000D02*
X149800000Y-60650000D01*
X127155000Y-69460000D02*
X127155000Y-67820000D01*
X152350000Y-112215048D02*
X152377989Y-112243037D01*
D68*
X129850000Y-86050000D02*
X131250000Y-86050000D01*
D67*
X139050000Y-60650000D02*
X142850000Y-60650000D01*
D69*
X132857500Y-106931250D02*
X132850000Y-106938750D01*
X127155000Y-69460000D02*
X128195000Y-69460000D01*
D68*
X141200000Y-76050000D02*
X141175000Y-76025000D01*
X139275000Y-89475000D02*
X139275000Y-88568502D01*
D67*
X160764915Y-103813037D02*
X167425000Y-110473122D01*
X154650000Y-69150000D02*
X152350000Y-66850000D01*
X131300000Y-60650000D02*
X132540000Y-60650000D01*
D69*
%TO.N,+5V*%
X122877500Y-102200000D02*
X122402500Y-101725000D01*
X122402500Y-101725000D02*
X122402500Y-100050000D01*
D67*
X122002989Y-44638037D02*
X121990489Y-44650537D01*
D69*
X133985000Y-70730000D02*
X134130000Y-70585000D01*
X123407500Y-99650000D02*
X122802500Y-99650000D01*
D67*
X118500000Y-127200000D02*
X116400000Y-129300000D01*
X116350000Y-102700000D02*
X116350000Y-105750000D01*
X116350000Y-95900000D02*
X116350000Y-96500000D01*
X140500000Y-54400000D02*
X140550000Y-54350000D01*
X116350000Y-105750000D02*
X109250000Y-112850000D01*
D69*
X122402500Y-100050000D02*
X122802500Y-99650000D01*
D67*
X118000000Y-96100000D02*
X116350000Y-94450000D01*
X118527989Y-61450000D02*
X116327989Y-59250000D01*
X117590489Y-43988037D02*
X116327989Y-45250537D01*
D69*
X122402500Y-99250000D02*
X122402500Y-97725000D01*
D67*
X121327989Y-43988037D02*
X121990489Y-44650537D01*
X116327989Y-58400000D02*
X116327989Y-52000000D01*
X116327989Y-52363037D02*
X118377989Y-54413037D01*
X116400000Y-129300000D02*
X116400000Y-155100000D01*
D69*
X122402500Y-97725000D02*
X122977500Y-97150000D01*
D67*
X116327989Y-63722011D02*
X116327989Y-59250000D01*
X136627989Y-54413037D02*
X136641026Y-54400000D01*
X121927500Y-96100000D02*
X118000000Y-96100000D01*
X116327989Y-59250000D02*
X116327989Y-58400000D01*
X138200000Y-54400000D02*
X140500000Y-54400000D01*
X118377989Y-54413037D02*
X136627989Y-54413037D01*
X116350000Y-72935000D02*
X116350000Y-94450000D01*
X117590489Y-43988037D02*
X121327989Y-43988037D01*
X114380350Y-98469650D02*
X111600000Y-98469650D01*
X132105000Y-70730000D02*
X131280000Y-70730000D01*
X116327989Y-45250537D02*
X116327989Y-52000000D01*
X122000000Y-61450000D02*
X118527989Y-61450000D01*
D69*
X122802500Y-99650000D02*
X122402500Y-99250000D01*
D67*
X116350000Y-102700000D02*
X116350000Y-112300000D01*
X116350000Y-96500000D02*
X114380350Y-98469650D01*
X136641026Y-54400000D02*
X138200000Y-54400000D01*
X116350000Y-94450000D02*
X116350000Y-95900000D01*
X122977500Y-97150000D02*
X121927500Y-96100000D01*
X116327989Y-52000000D02*
X116327989Y-52363037D01*
D69*
X132105000Y-70730000D02*
X133985000Y-70730000D01*
D67*
X116350000Y-69770000D02*
X116350000Y-63744022D01*
X126327989Y-44638037D02*
X122002989Y-44638037D01*
X116350000Y-63744022D02*
X116327989Y-63722011D01*
X118500000Y-116100000D02*
X118500000Y-127200000D01*
X109250000Y-112850000D02*
X108550000Y-112850000D01*
X131280000Y-70730000D02*
X122000000Y-61450000D01*
%TO.N,GND*%
X171225488Y-133560536D02*
X170250489Y-133560536D01*
D69*
X107375000Y-104994650D02*
X111575000Y-104994650D01*
D67*
X161235536Y-79125536D02*
X163895489Y-79125536D01*
X169200000Y-117800000D02*
X169200000Y-116530000D01*
X154827989Y-112243037D02*
X155377989Y-112793037D01*
D69*
X142750000Y-80250000D02*
X142450000Y-80550000D01*
D67*
X168335489Y-79125536D02*
X167065489Y-79125536D01*
D69*
X142750000Y-77575000D02*
X142750000Y-80250000D01*
D67*
X162890000Y-110600000D02*
X162895000Y-110595000D01*
D69*
X121902500Y-100050000D02*
X121502500Y-99650000D01*
X121902500Y-99250000D02*
X121902500Y-97625000D01*
D67*
X194352500Y-105702451D02*
X194352500Y-104727452D01*
X171757989Y-50038037D02*
X169852989Y-48133037D01*
X161220000Y-79110000D02*
X161235536Y-79125536D01*
D69*
X121902500Y-97625000D02*
X121427500Y-97150000D01*
X111575000Y-95144650D02*
X107375000Y-95144650D01*
D67*
X162895000Y-110595000D02*
X163925000Y-110595000D01*
D69*
X142725000Y-76025000D02*
X142725000Y-74975000D01*
D67*
X170675000Y-113495000D02*
X169325000Y-112145000D01*
X194376250Y-62807684D02*
X194376250Y-62250000D01*
X174602989Y-50083037D02*
X172547989Y-50083037D01*
D69*
X121300000Y-87100000D02*
X124700000Y-87100000D01*
D67*
X167065489Y-79125536D02*
X167065489Y-78150537D01*
D69*
X127850000Y-81050000D02*
X127900000Y-81100000D01*
X111700000Y-123010000D02*
X108550000Y-123010000D01*
X142450000Y-80550000D02*
X141200000Y-80550000D01*
D67*
X172502989Y-50038037D02*
X171757989Y-50038037D01*
D69*
X114244650Y-104994650D02*
X114250000Y-105000000D01*
X136287500Y-95987500D02*
X136900000Y-96600000D01*
D67*
X161000000Y-113500000D02*
X161000000Y-114700000D01*
X172227989Y-134563037D02*
X171225488Y-133560536D01*
X155097989Y-115373037D02*
X153827989Y-115373037D01*
X170827989Y-47158037D02*
X169852989Y-48133037D01*
X140240489Y-48118037D02*
X142070489Y-48118037D01*
X142070489Y-48118037D02*
X142340489Y-48388037D01*
X154227989Y-110763037D02*
X154277989Y-110813037D01*
X147377989Y-53213037D02*
X145277989Y-51113037D01*
D69*
X107375000Y-95144650D02*
X107375000Y-104994650D01*
D67*
X178927989Y-65913037D02*
X191270897Y-65913037D01*
D69*
X142725000Y-74975000D02*
X142700000Y-74950000D01*
D67*
X122792989Y-48923037D02*
X130940489Y-48923037D01*
D69*
X126250000Y-85550000D02*
X126200000Y-85600000D01*
D67*
X169627989Y-44613037D02*
X169647989Y-44633037D01*
X111870000Y-78530000D02*
X109650000Y-78530000D01*
X192649598Y-107963037D02*
X194352500Y-106260135D01*
D69*
X122240000Y-60560000D02*
X122200000Y-60600000D01*
D67*
X169325488Y-133560536D02*
X170250489Y-133560536D01*
X172547989Y-50083037D02*
X172502989Y-50038037D01*
X169200000Y-115260000D02*
X169757684Y-115260000D01*
D69*
X124700000Y-87100000D02*
X126200000Y-85600000D01*
X137850000Y-105350000D02*
X137850000Y-106938750D01*
X138775000Y-89475000D02*
X138775000Y-90725000D01*
X127155000Y-73270000D02*
X127155000Y-74470000D01*
D67*
X178702989Y-50083037D02*
X176652989Y-50083037D01*
X155200000Y-44100000D02*
X151798526Y-44100000D01*
X166870000Y-131105048D02*
X169325488Y-133560536D01*
D69*
X132275000Y-95275000D02*
X131950000Y-95600000D01*
D67*
X138175489Y-48118037D02*
X137540489Y-47483037D01*
D68*
X132275000Y-76739952D02*
X132272011Y-76736963D01*
D67*
X170675000Y-114342684D02*
X170675000Y-113495000D01*
X145277989Y-51113037D02*
X144140489Y-51113037D01*
X197526250Y-60257501D02*
X195318750Y-60257501D01*
D69*
X122240000Y-58200000D02*
X122240000Y-60560000D01*
D67*
X176652989Y-50083037D02*
X174602989Y-50083037D01*
D69*
X136287500Y-95200000D02*
X136287500Y-95987500D01*
D67*
X169757684Y-115260000D02*
X170675000Y-114342684D01*
X137540489Y-49533037D02*
X137540489Y-47483037D01*
X111900000Y-78500000D02*
X111870000Y-78530000D01*
X166615488Y-77700536D02*
X165320489Y-77700536D01*
X136940489Y-50138037D02*
X137540489Y-49538037D01*
X169200000Y-117800000D02*
X167200000Y-117800000D01*
X163500000Y-127700000D02*
X166870000Y-131070000D01*
D69*
X134130000Y-73200000D02*
X134130000Y-72135000D01*
X132275000Y-89475000D02*
X132275000Y-95275000D01*
D67*
X137540489Y-49538037D02*
X137540489Y-47483037D01*
D69*
X121502500Y-99650000D02*
X121902500Y-99250000D01*
X126200000Y-85600000D02*
X126200000Y-87300000D01*
D67*
X162400489Y-84925536D02*
X160890488Y-84925536D01*
X170827989Y-44633037D02*
X170827989Y-47158037D01*
D69*
X126700000Y-79375000D02*
X126700000Y-81050000D01*
D67*
X139120489Y-51113037D02*
X137540489Y-49533037D01*
X189255536Y-74119464D02*
X192844511Y-74119464D01*
X153827989Y-115373037D02*
X153827989Y-116643037D01*
X169647989Y-44633037D02*
X170827989Y-44633037D01*
X155377989Y-112793037D02*
X155377989Y-115093037D01*
D69*
X129850000Y-85550000D02*
X126250000Y-85550000D01*
X137050000Y-95200000D02*
X136287500Y-95200000D01*
D67*
X140240489Y-48118037D02*
X138175489Y-48118037D01*
X153827989Y-116643037D02*
X153827989Y-117913037D01*
D69*
X136720000Y-151820000D02*
X136700000Y-151800000D01*
D67*
X151798526Y-44100000D02*
X151402989Y-44495537D01*
D69*
X136720000Y-155100000D02*
X136720000Y-151820000D01*
D67*
X163775000Y-110745000D02*
X163925000Y-110595000D01*
D69*
X111575000Y-104994650D02*
X114244650Y-104994650D01*
D67*
X148507989Y-110763037D02*
X148577989Y-110693037D01*
X155377989Y-115093037D02*
X155097989Y-115373037D01*
D68*
X142725000Y-77550000D02*
X142750000Y-77575000D01*
D69*
X113642850Y-101669650D02*
X113662500Y-101650000D01*
D67*
X145163037Y-54363037D02*
X147127989Y-54363037D01*
X160100000Y-110600000D02*
X162890000Y-110600000D01*
X144140489Y-51113037D02*
X139120489Y-51113037D01*
X172227989Y-136710536D02*
X172227989Y-134563037D01*
X191270897Y-65913037D02*
X194376250Y-62807684D01*
X163340000Y-77560000D02*
X166775000Y-74125000D01*
D69*
X140150000Y-92100000D02*
X137050000Y-95200000D01*
D67*
X195318750Y-60257501D02*
X194376250Y-61200001D01*
X154277989Y-112243037D02*
X154827989Y-112243037D01*
X194352500Y-106260135D02*
X194352500Y-105702451D01*
D69*
X121327500Y-102200000D02*
X120300000Y-102200000D01*
D67*
X194376250Y-61200001D02*
X194376250Y-62250000D01*
X167065489Y-78150537D02*
X166615488Y-77700536D01*
X189250000Y-74125000D02*
X189255536Y-74119464D01*
D69*
X126200000Y-87300000D02*
X125800000Y-87700000D01*
X138775000Y-90725000D02*
X140150000Y-92100000D01*
D68*
X132275000Y-78125000D02*
X132275000Y-76739952D01*
D67*
X154277989Y-110813037D02*
X154277989Y-112243037D01*
X169200000Y-116530000D02*
X169200000Y-115260000D01*
X147277989Y-110763037D02*
X148507989Y-110763037D01*
X178100000Y-107963037D02*
X192649598Y-107963037D01*
X166775000Y-74125000D02*
X189250000Y-74125000D01*
D69*
X111750000Y-140130000D02*
X108600000Y-140130000D01*
D67*
X152340489Y-45433037D02*
X151402989Y-44495537D01*
X138200000Y-57900000D02*
X138200000Y-56300000D01*
D69*
X142725000Y-76025000D02*
X142725000Y-77550000D01*
D67*
X161100000Y-77560000D02*
X163340000Y-77560000D01*
X161000000Y-114700000D02*
X162300000Y-116000000D01*
X169605489Y-79125536D02*
X168335489Y-79125536D01*
X165320489Y-77700536D02*
X163895489Y-79125536D01*
X166870000Y-131070000D02*
X166870000Y-131105048D01*
X121990489Y-49725537D02*
X122792989Y-48923037D01*
X194352500Y-104727452D02*
X195264950Y-103815002D01*
D69*
X111600000Y-101669650D02*
X113642850Y-101669650D01*
D67*
X156702989Y-45433037D02*
X152340489Y-45433037D01*
D69*
X121327500Y-102200000D02*
X121902500Y-101625000D01*
D67*
X195264950Y-103815002D02*
X197467500Y-103815002D01*
D69*
X121902500Y-101625000D02*
X121902500Y-100050000D01*
X126700000Y-81050000D02*
X127850000Y-81050000D01*
D67*
X130940489Y-48923037D02*
X132155489Y-50138037D01*
X132155489Y-50138037D02*
X136940489Y-50138037D01*
D69*
X121502500Y-99650000D02*
X120897500Y-99650000D01*
X133995000Y-72000000D02*
X134130000Y-72135000D01*
X116700000Y-119525000D02*
X116700000Y-120600000D01*
D67*
X120927989Y-48663037D02*
X121990489Y-49725537D01*
X117577989Y-48663037D02*
X120927989Y-48663037D01*
X138200000Y-57900000D02*
X136650000Y-57900000D01*
X145150000Y-54350000D02*
X145163037Y-54363037D01*
D69*
X132105000Y-72000000D02*
X133995000Y-72000000D01*
D67*
X160890488Y-84925536D02*
X160877989Y-84913037D01*
D69*
%TO.N,/OSC_IN*%
X128572011Y-79697011D02*
X128572011Y-81822011D01*
X128800000Y-82050000D02*
X129850000Y-82050000D01*
X123992011Y-78386963D02*
X123972011Y-78366963D01*
X123972011Y-78366963D02*
X126158037Y-78366963D01*
X126158037Y-78366963D02*
X126700000Y-77825000D01*
X126700000Y-77825000D02*
X128572011Y-79697011D01*
X128572011Y-81822011D02*
X128800000Y-82050000D01*
X123962011Y-78356963D02*
X123972011Y-78366963D01*
%TO.N,/OSC_OUT*%
X126750000Y-82550000D02*
X129850000Y-82550000D01*
X126700000Y-82600000D02*
X126750000Y-82550000D01*
X124002011Y-82096963D02*
X123972011Y-82066963D01*
X123972011Y-82066963D02*
X126166963Y-82066963D01*
X126166963Y-82066963D02*
X126700000Y-82600000D01*
%TO.N,Net-(U2-VCAP_1)*%
X138275000Y-92075000D02*
X138250000Y-92100000D01*
X138275000Y-89475000D02*
X138275000Y-92075000D01*
D67*
%TO.N,+12V*%
X157600000Y-109050000D02*
X157700000Y-109050000D01*
X145500000Y-121150000D02*
X136150000Y-130500000D01*
X140240489Y-46848037D02*
X141980489Y-46848037D01*
X196382449Y-100752451D02*
X195622500Y-100752451D01*
X136150000Y-130500000D02*
X135800000Y-130500000D01*
X156690489Y-50120537D02*
X156702989Y-50108037D01*
X158500000Y-57217548D02*
X158500000Y-97150000D01*
X194496250Y-60050000D02*
X195646250Y-58900000D01*
X158500000Y-97150000D02*
X158500000Y-108250000D01*
X195646250Y-58900000D02*
X195646250Y-57300000D01*
X190701250Y-60050000D02*
X194496250Y-60050000D01*
X142340489Y-46488037D02*
X144065489Y-46488037D01*
X197467500Y-101915002D02*
X197467500Y-101837502D01*
X175200489Y-134830536D02*
X175200489Y-135638036D01*
X196468749Y-57300000D02*
X195646250Y-57300000D01*
X169510536Y-129210536D02*
X173080489Y-129210536D01*
X161422989Y-47163037D02*
X158502989Y-50083037D01*
X171880489Y-132485535D02*
X174225490Y-134830536D01*
X151402989Y-50120537D02*
X156690489Y-50120537D01*
X141980489Y-46848037D02*
X142340489Y-46488037D01*
X186269563Y-99344464D02*
X189777550Y-102852451D01*
X195622500Y-102057501D02*
X195622500Y-100752451D01*
X173080489Y-129210536D02*
X171880489Y-130410536D01*
X189967500Y-102852451D02*
X190767500Y-103652451D01*
X189777550Y-102852451D02*
X189967500Y-102852451D01*
X144140489Y-46413037D02*
X147695489Y-46413037D01*
X171880489Y-130410536D02*
X171880489Y-132485535D01*
X174225490Y-134830536D02*
X175200489Y-134830536D01*
X190767500Y-103652451D02*
X194027550Y-103652451D01*
X190026250Y-59375000D02*
X190701250Y-60050000D01*
X197526250Y-58357501D02*
X196468749Y-57300000D01*
X157700000Y-109050000D02*
X158500000Y-108250000D01*
X161422989Y-44583037D02*
X161422989Y-47163037D01*
X156727989Y-50083037D02*
X156702989Y-50108037D01*
X186264027Y-99350000D02*
X186269563Y-99344464D01*
X158502989Y-50083037D02*
X156727989Y-50083037D01*
X197467500Y-101837502D02*
X196382449Y-100752451D01*
X151402989Y-50120537D02*
X158500000Y-57217548D01*
X145500000Y-119200000D02*
X145500000Y-121150000D01*
X175230489Y-134860536D02*
X175200489Y-134830536D01*
X160700000Y-99350000D02*
X186264027Y-99350000D01*
X151402989Y-50120537D02*
X160695489Y-59413037D01*
X160637500Y-50083037D02*
X158502989Y-50083037D01*
X109130000Y-130500000D02*
X108600000Y-129970000D01*
X175200489Y-135638036D02*
X174127989Y-136710536D01*
X158500000Y-118200000D02*
X169510536Y-129210536D01*
X158500000Y-97150000D02*
X160700000Y-99350000D01*
X190026250Y-59375000D02*
X160733526Y-59375000D01*
X144065489Y-46488037D02*
X144140489Y-46413037D01*
X133300000Y-130500000D02*
X117500000Y-130500000D01*
X158500000Y-108250000D02*
X158500000Y-118200000D01*
X147695489Y-46413037D02*
X151402989Y-50120537D01*
X194027550Y-103652451D02*
X195622500Y-102057501D01*
X160733526Y-59375000D02*
X160695489Y-59413037D01*
X114850000Y-130500000D02*
X109130000Y-130500000D01*
%TO.N,/CURR_A*%
X159250000Y-83063037D02*
X159287501Y-83025536D01*
D69*
X129850000Y-87050000D02*
X128600000Y-87050000D01*
D67*
X164200489Y-83050536D02*
X162425489Y-83050536D01*
X159287501Y-83025536D02*
X162400489Y-83025536D01*
X162425489Y-83050536D02*
X162400489Y-83025536D01*
X157600000Y-83063037D02*
X153100000Y-83063037D01*
D69*
X128600000Y-87050000D02*
X128250000Y-87400000D01*
X128250000Y-87400000D02*
X128250000Y-88050000D01*
D67*
%TO.N,/MOTOR_A*%
X189096250Y-55800000D02*
X189096250Y-57900000D01*
X194376250Y-57300000D02*
X194376250Y-56325001D01*
X202600000Y-56940000D02*
X202600000Y-50285000D01*
X189596250Y-58400000D02*
X190846250Y-58400000D01*
X200040000Y-58990000D02*
X200550000Y-58990000D01*
X189896250Y-55000000D02*
X189096250Y-55800000D01*
X194376250Y-58274999D02*
X194376250Y-57300000D01*
X190846250Y-58400000D02*
X191446250Y-59000000D01*
X193651249Y-59000000D02*
X194376250Y-58274999D01*
X202600000Y-50285000D02*
X200565000Y-48250000D01*
X195201251Y-55500000D02*
X197060000Y-55500000D01*
X191446250Y-59000000D02*
X193651249Y-59000000D01*
X200550000Y-58990000D02*
X202600000Y-56940000D01*
X189096250Y-57900000D02*
X189596250Y-58400000D01*
X194376250Y-56325001D02*
X195201251Y-55500000D01*
X197060000Y-55500000D02*
X200550000Y-58990000D01*
%TO.N,Net-(D2-K)*%
X190026250Y-57275000D02*
X191811250Y-57275000D01*
X191796250Y-57260000D02*
X191836250Y-57300000D01*
X191796250Y-55000000D02*
X191796250Y-57260000D01*
%TO.N,/POWER*%
X216600000Y-45700000D02*
X218600000Y-47700000D01*
X216590000Y-45710000D02*
X216600000Y-45700000D01*
X218800000Y-90700000D02*
X218800000Y-100500000D01*
X186970489Y-140629511D02*
X187000000Y-140659022D01*
X218600000Y-57800000D02*
X216600000Y-59800000D01*
X216600000Y-88500000D02*
X216300000Y-88800000D01*
X200530000Y-88850000D02*
X200520000Y-88840000D01*
X175300000Y-156600000D02*
X184600000Y-156600000D01*
X187005489Y-139820536D02*
X186970489Y-139785536D01*
X178702989Y-48183037D02*
X176652989Y-48183037D01*
X176652989Y-48183037D02*
X174602989Y-48183037D01*
X172502989Y-48768037D02*
X172502989Y-47498037D01*
X186970489Y-139785536D02*
X186970489Y-140629511D01*
X172900000Y-154200000D02*
X175300000Y-156600000D01*
X218600000Y-47700000D02*
X218600000Y-57800000D01*
X187000000Y-140659022D02*
X187000000Y-154200000D01*
X200575000Y-45700000D02*
X200565000Y-45710000D01*
D70*
X183216963Y-48183037D02*
X178702989Y-48183037D01*
D67*
X216300000Y-88800000D02*
X200560000Y-88800000D01*
D70*
X184300000Y-47100000D02*
X183216963Y-48183037D01*
D67*
X184600000Y-156600000D02*
X187000000Y-154200000D01*
X174602989Y-48183037D02*
X174002989Y-48783037D01*
X200565000Y-45710000D02*
X216590000Y-45710000D01*
X200560000Y-88800000D02*
X200520000Y-88840000D01*
X174002989Y-48783037D02*
X172517989Y-48783037D01*
X218800000Y-100500000D02*
X216600000Y-102700000D01*
X216600000Y-88500000D02*
X218800000Y-90700000D01*
X172517989Y-48783037D02*
X172502989Y-48768037D01*
%TO.N,/TP_A*%
X200550000Y-80690000D02*
X201610000Y-80690000D01*
X189499463Y-84213037D02*
X193062500Y-80650000D01*
X214500000Y-56600000D02*
X214500000Y-66500000D01*
X172477989Y-84213037D02*
X189499463Y-84213037D01*
X200550000Y-69790000D02*
X203400000Y-69790000D01*
X169677989Y-84148036D02*
X169605489Y-84075536D01*
X203400000Y-72090000D02*
X205700000Y-69790000D01*
X169605489Y-84075536D02*
X172340488Y-84075536D01*
X215410000Y-69790000D02*
X216600000Y-68600000D01*
X172340488Y-84075536D02*
X172477989Y-84213037D01*
X203400000Y-78900000D02*
X203400000Y-72090000D01*
X214500000Y-66500000D02*
X216600000Y-68600000D01*
X203400000Y-69790000D02*
X215410000Y-69790000D01*
X201610000Y-80690000D02*
X203400000Y-78900000D01*
X216600000Y-54500000D02*
X214500000Y-56600000D01*
X193105000Y-80607500D02*
X193062500Y-80650000D01*
%TO.N,/CURR_B*%
X132850000Y-101150000D02*
X142000000Y-101150000D01*
X165925000Y-110695000D02*
X165825000Y-110595000D01*
X165925000Y-112395000D02*
X165925000Y-110695000D01*
X160043037Y-104813037D02*
X165825000Y-110595000D01*
D69*
X129850000Y-90700000D02*
X129850000Y-89450000D01*
D67*
X159250000Y-104813037D02*
X160043037Y-104813037D01*
X153100000Y-104813037D02*
X157750000Y-104813037D01*
D69*
X129850000Y-89450000D02*
X129850000Y-87550000D01*
D67*
%TO.N,Net-(D3-K)*%
X191812500Y-98457451D02*
X191817500Y-98452451D01*
X191812500Y-100752451D02*
X191812500Y-98457451D01*
X189967500Y-100752451D02*
X191812500Y-100752451D01*
%TO.N,/MOTOR_B*%
X189917500Y-98452451D02*
X189917500Y-98012501D01*
X202400000Y-100400000D02*
X202400000Y-93260000D01*
X195029952Y-99100000D02*
X197300000Y-99100000D01*
X194352500Y-101727450D02*
X194352500Y-100752451D01*
X191617500Y-102702451D02*
X193377499Y-102702451D01*
X189767500Y-101852451D02*
X190767500Y-101852451D01*
X202400000Y-93260000D02*
X200520000Y-91380000D01*
X194352500Y-100752451D02*
X194352500Y-99777452D01*
X189917500Y-98452451D02*
X189017500Y-99352451D01*
X193377499Y-102702451D02*
X194352500Y-101727450D01*
X189017500Y-101102451D02*
X189767500Y-101852451D01*
X194352500Y-99777452D02*
X195029952Y-99100000D01*
X200500000Y-102300000D02*
X202400000Y-100400000D01*
X189017500Y-99352451D02*
X189017500Y-101102451D01*
X190767500Y-101852451D02*
X191617500Y-102702451D01*
X197300000Y-99100000D02*
X200500000Y-102300000D01*
%TO.N,/TP_B*%
X214600000Y-109500000D02*
X216600000Y-111500000D01*
X165231963Y-118781963D02*
X172522011Y-118781963D01*
X172540048Y-118800000D02*
X172522011Y-118781963D01*
X193050000Y-123787500D02*
X193062500Y-123800000D01*
X164225000Y-117825000D02*
X164250000Y-117800000D01*
X204600000Y-113100000D02*
X206500000Y-113100000D01*
X188062500Y-118800000D02*
X172540048Y-118800000D01*
X204500000Y-113100000D02*
X215000000Y-113100000D01*
X215000000Y-113100000D02*
X216600000Y-111500000D01*
X203400000Y-114300000D02*
X204600000Y-113100000D01*
X203400000Y-122100000D02*
X203400000Y-114300000D01*
X200490000Y-123890000D02*
X201610000Y-123890000D01*
X193062500Y-123800000D02*
X188062500Y-118800000D01*
X164227500Y-117822500D02*
X164250000Y-117800000D01*
X201610000Y-123890000D02*
X203400000Y-122100000D01*
X214600000Y-99300000D02*
X214600000Y-109500000D01*
X216600000Y-97300000D02*
X214600000Y-99300000D01*
X165231963Y-118781963D02*
X164250000Y-117800000D01*
X200500000Y-113100000D02*
X204500000Y-113100000D01*
%TO.N,Net-(D4-K)*%
X175210489Y-131010536D02*
X175200489Y-131020536D01*
X175200489Y-129230536D02*
X175180489Y-129210536D01*
X175200489Y-131020536D02*
X175200489Y-129230536D01*
X177480489Y-131010536D02*
X175210489Y-131010536D01*
%TO.N,/MOTOR_C*%
X176175488Y-133560536D02*
X176800000Y-134185048D01*
X176800000Y-136891026D02*
X173935490Y-139755536D01*
X173930489Y-128860536D02*
X173930489Y-130210536D01*
X174730489Y-128060536D02*
X173930489Y-128860536D01*
X173130489Y-131010536D02*
X173130489Y-132465535D01*
X182752988Y-141463037D02*
X184430489Y-139785536D01*
X176800000Y-134185048D02*
X176800000Y-136891026D01*
X175272990Y-141463037D02*
X182752988Y-141463037D01*
X173130489Y-132465535D02*
X174225490Y-133560536D01*
X174225490Y-133560536D02*
X175200489Y-133560536D01*
X176430489Y-128060536D02*
X174730489Y-128060536D01*
X173935490Y-139755536D02*
X173565489Y-139755536D01*
X173930489Y-130210536D02*
X173130489Y-131010536D01*
X175200489Y-133560536D02*
X176175488Y-133560536D01*
X177480489Y-129110536D02*
X176430489Y-128060536D01*
X173565489Y-139755536D02*
X175272990Y-141463037D01*
D69*
%TO.N,/CURR_C*%
X131775000Y-89475000D02*
X131775000Y-94525000D01*
D67*
X150477989Y-109727989D02*
X145000000Y-104250000D01*
D69*
X131775000Y-94525000D02*
X131300000Y-95000000D01*
D67*
X150477989Y-110693037D02*
X150477989Y-109727989D01*
X150502989Y-112493037D02*
X150502989Y-110718037D01*
%TO.N,/TP_C*%
X148877989Y-120593037D02*
X148877989Y-130913037D01*
X162875489Y-145175489D02*
X162875489Y-152975489D01*
X162875489Y-139785536D02*
X162875489Y-145175489D01*
X162875489Y-152975489D02*
X164100000Y-154200000D01*
X154900000Y-144200000D02*
X152175489Y-141475489D01*
X148877989Y-117913037D02*
X148877989Y-120593037D01*
X148877989Y-130913037D02*
X152227989Y-134263037D01*
X166700000Y-151600000D02*
X164100000Y-154200000D01*
X175600000Y-151600000D02*
X166700000Y-151600000D01*
X152175489Y-141475489D02*
X152175489Y-139755536D01*
X178200000Y-154200000D02*
X175600000Y-151600000D01*
X161900000Y-144200000D02*
X154900000Y-144200000D01*
X162875489Y-145175489D02*
X161900000Y-144200000D01*
%TO.N,Net-(U10-BOOT)*%
X134830489Y-45568037D02*
X134840489Y-45578037D01*
X133240489Y-45568037D02*
X134830489Y-45568037D01*
%TO.N,Net-(U10-PH)*%
X133240489Y-44608037D02*
X139270489Y-44608037D01*
X130940489Y-44653037D02*
X128467989Y-44653037D01*
X133240489Y-44608037D02*
X130985489Y-44608037D01*
X128467989Y-44653037D02*
X128452989Y-44638037D01*
X139270489Y-44608037D02*
X140240489Y-45578037D01*
X130985489Y-44608037D02*
X130940489Y-44653037D01*
%TO.N,/RegulatorStage/SW*%
X165582989Y-50083037D02*
X162762500Y-50083037D01*
X165627989Y-50038037D02*
X165602989Y-50063037D01*
X164027989Y-45883037D02*
X164027989Y-50058037D01*
X167202989Y-50038037D02*
X165627989Y-50038037D01*
X165602989Y-50063037D02*
X165582989Y-50083037D01*
%TO.N,/RegulatorStage/BST*%
X167202989Y-48768037D02*
X165937989Y-48768037D01*
X165937989Y-48768037D02*
X165602989Y-49103037D01*
%TO.N,/RegulatorStage/FB*%
X160052989Y-43733037D02*
X166392988Y-43733037D01*
X166392988Y-43733037D02*
X167232989Y-44573038D01*
X167232989Y-44573038D02*
X167232989Y-44883037D01*
X156702989Y-48458037D02*
X156702989Y-47083037D01*
X167232989Y-46198037D02*
X167202989Y-46228037D01*
X156702989Y-47083037D02*
X160052989Y-43733037D01*
X167232989Y-44883037D02*
X167232989Y-46198037D01*
%TO.N,Net-(C35-Pad2)*%
X162382989Y-45878037D02*
X162377989Y-45883037D01*
X162382989Y-44583037D02*
X162382989Y-45878037D01*
X165972989Y-44583037D02*
X166272989Y-44883037D01*
X162382989Y-44583037D02*
X165972989Y-44583037D01*
D69*
%TO.N,Net-(D1-A)*%
X134650000Y-95137500D02*
X134712500Y-95200000D01*
X134650000Y-93500000D02*
X134650000Y-95137500D01*
%TO.N,/CANH*%
X125315000Y-72000000D02*
X125130000Y-72185000D01*
D67*
X125130000Y-72185000D02*
X109655000Y-72185000D01*
X109655000Y-72185000D02*
X108345000Y-73495000D01*
D69*
X127155000Y-72000000D02*
X125315000Y-72000000D01*
D67*
%TO.N,/CANL*%
X125115000Y-70520000D02*
X109620000Y-70520000D01*
D69*
X127155000Y-70730000D02*
X125325000Y-70730000D01*
D67*
X109620000Y-70520000D02*
X108345000Y-69245000D01*
X108345000Y-69245000D02*
X108345000Y-68415000D01*
X125130000Y-70535000D02*
X125115000Y-70520000D01*
D69*
X125325000Y-70730000D02*
X125130000Y-70535000D01*
%TO.N,/THROTTLE*%
X116700000Y-117875000D02*
X116700000Y-117925000D01*
X133275000Y-89475000D02*
X133275000Y-96924999D01*
X133275000Y-96924999D02*
X116700000Y-113499999D01*
X116700000Y-113499999D02*
X116700000Y-117875000D01*
X116700000Y-117925000D02*
X115100000Y-119525000D01*
%TO.N,/HALL_A*%
X142650000Y-104250000D02*
X134000000Y-112900000D01*
X134000000Y-142580000D02*
X121480000Y-155100000D01*
X141200000Y-85550000D02*
X142153705Y-85550000D01*
X142153705Y-85550000D02*
X142650000Y-86046295D01*
X142650000Y-86046295D02*
X142650000Y-104250000D01*
X134000000Y-112900000D02*
X134000000Y-142580000D01*
%TO.N,/HALL_B*%
X142400000Y-85050000D02*
X143500000Y-86150000D01*
X134500000Y-147160000D02*
X126560000Y-155100000D01*
X143500000Y-86150000D02*
X143500000Y-104200000D01*
X143500000Y-104200000D02*
X134500000Y-113200000D01*
X141200000Y-85050000D02*
X142400000Y-85050000D01*
X134500000Y-113200000D02*
X134500000Y-147160000D01*
%TO.N,/HALL_C*%
X135000000Y-113407106D02*
X135000000Y-151740000D01*
X141200000Y-84550000D02*
X142700000Y-84550000D01*
X144000000Y-85850000D02*
X144000000Y-104407106D01*
X142700000Y-84550000D02*
X144000000Y-85850000D01*
X135000000Y-151740000D02*
X131640000Y-155100000D01*
X144000000Y-104407106D02*
X135000000Y-113407106D01*
%TO.N,/NRST*%
X122800000Y-85600000D02*
X122800000Y-84500000D01*
X122200000Y-83700000D02*
X127100000Y-83700000D01*
X127750000Y-83050000D02*
X129850000Y-83050000D01*
X121350000Y-85500000D02*
X122700000Y-85500000D01*
X122800000Y-84500000D02*
X123600000Y-83700000D01*
X121750000Y-69050000D02*
X124794669Y-66005331D01*
X122700000Y-85500000D02*
X122800000Y-85600000D01*
X124794669Y-66005331D02*
X124794669Y-65305331D01*
X124800000Y-62900000D02*
X124780000Y-62880000D01*
X124780000Y-62880000D02*
X124780000Y-58200000D01*
X127100000Y-83700000D02*
X127750000Y-83050000D01*
X121413037Y-85563037D02*
X121350000Y-85500000D01*
X121750000Y-69770000D02*
X121750000Y-69050000D01*
X121750000Y-72935000D02*
X121750000Y-83250000D01*
X121750000Y-83250000D02*
X122200000Y-83700000D01*
%TO.N,/SWCLK*%
X139275000Y-78125000D02*
X139275000Y-70632106D01*
X129360000Y-60717106D02*
X129360000Y-60240000D01*
X139275000Y-70632106D02*
X129360000Y-60717106D01*
X129360000Y-60240000D02*
X127320000Y-58200000D01*
%TO.N,/SWDIO*%
X140050000Y-80778120D02*
X140050000Y-70700000D01*
X140050000Y-70700000D02*
X129860000Y-60510000D01*
X140321880Y-81050000D02*
X140050000Y-80778120D01*
X141200000Y-81050000D02*
X140321880Y-81050000D01*
X129860000Y-60510000D02*
X129860000Y-58200000D01*
D67*
%TO.N,/PWM_A*%
X153063921Y-62963037D02*
X157300000Y-62963037D01*
D69*
X144450000Y-83550000D02*
X146500000Y-85600000D01*
D67*
X149950000Y-63463037D02*
X149950000Y-81700000D01*
X149950000Y-81700000D02*
X149950000Y-81750000D01*
X159700000Y-63013037D02*
X191073213Y-63013037D01*
X191073213Y-63013037D02*
X191836250Y-62250000D01*
X153060400Y-62959516D02*
X153063921Y-62963037D01*
X150450000Y-62963037D02*
X149950000Y-63463037D01*
D69*
X141200000Y-83550000D02*
X144450000Y-83550000D01*
%TO.N,/PWM_B*%
X141200000Y-83050000D02*
X146490000Y-83050000D01*
D67*
X150260000Y-83060000D02*
X146500000Y-83060000D01*
X157750000Y-100513037D02*
X153100000Y-100513037D01*
X186437114Y-100513037D02*
X186442650Y-100507501D01*
X151100000Y-100013037D02*
X151100000Y-83900000D01*
X151100000Y-83900000D02*
X150260000Y-83060000D01*
X159250000Y-100513037D02*
X186437114Y-100513037D01*
X191637600Y-105702451D02*
X191812500Y-105702451D01*
D69*
X146490000Y-83050000D02*
X146500000Y-83060000D01*
D67*
X151600000Y-100513037D02*
X151100000Y-100013037D01*
X186442650Y-100507501D02*
X191637600Y-105702451D01*
%TO.N,/PWM_C*%
X148950000Y-104550000D02*
X148950000Y-83810000D01*
X157600000Y-110560050D02*
X157600000Y-118500000D01*
D69*
X144470000Y-82550000D02*
X146500000Y-80520000D01*
X141200000Y-82550000D02*
X144470000Y-82550000D01*
D67*
X170120536Y-131020536D02*
X170250489Y-131020536D01*
X157600000Y-118500000D02*
X170120536Y-131020536D01*
X151550000Y-107150000D02*
X148950000Y-104550000D01*
X153100000Y-107561348D02*
X154601298Y-107561348D01*
X154601298Y-107561348D02*
X157600000Y-110560050D01*
D70*
%TO.N,Net-(MOSFET1-G)*%
X200535000Y-43200000D02*
X200565000Y-43170000D01*
D67*
X198325000Y-43200000D02*
X200535000Y-43200000D01*
D70*
%TO.N,Net-(MOSFET2-G)*%
X200540000Y-64700000D02*
X200550000Y-64710000D01*
D67*
X198325000Y-64700000D02*
X200540000Y-64700000D01*
%TO.N,Net-(MOSFET3-G)*%
X198300000Y-53900000D02*
X200540000Y-53900000D01*
D70*
X200540000Y-53900000D02*
X200550000Y-53910000D01*
D67*
%TO.N,Net-(MOSFET4-G)*%
X198300000Y-75600000D02*
X200540000Y-75600000D01*
D70*
X200540000Y-75600000D02*
X200550000Y-75610000D01*
D67*
%TO.N,Net-(MOSFET5-G)*%
X198275000Y-86300000D02*
X200520000Y-86300000D01*
%TO.N,Net-(MOSFET6-G)*%
X200480000Y-108000000D02*
X200500000Y-108020000D01*
X198225000Y-108000000D02*
X200480000Y-108000000D01*
%TO.N,Net-(MOSFET7-G)*%
X198250000Y-97250000D02*
X200470000Y-97250000D01*
X200470000Y-97250000D02*
X200500000Y-97220000D01*
%TO.N,Net-(MOSFET8-G)*%
X200480000Y-118800000D02*
X200490000Y-118810000D01*
X198225000Y-118800000D02*
X200480000Y-118800000D01*
%TO.N,Net-(MOSFET9-G)*%
X189510489Y-137560536D02*
X189505489Y-137555536D01*
X189510489Y-139785536D02*
X189510489Y-137560536D01*
%TO.N,Net-(MOSFET10-G)*%
X167955489Y-139785536D02*
X167955489Y-137530536D01*
%TO.N,Net-(MOSFET11-G)*%
X178645489Y-139755536D02*
X178645489Y-137515536D01*
X178645489Y-137515536D02*
X178655489Y-137505536D01*
%TO.N,Net-(MOSFET12-G)*%
X157255489Y-139755536D02*
X157255489Y-137505536D01*
D69*
%TO.N,/USB_DM*%
X119600000Y-100600000D02*
X120897500Y-100600000D01*
X117625000Y-98900000D02*
X118550000Y-98900000D01*
%TO.N,/USB_DP*%
X120150000Y-98700000D02*
X120897500Y-98700000D01*
X118400000Y-100450000D02*
X120150000Y-98700000D01*
X117625000Y-100450000D02*
X118400000Y-100450000D01*
%TO.N,/BOOT0*%
X127350000Y-98900000D02*
X127350000Y-101750000D01*
X131287739Y-81490381D02*
X133775000Y-79003120D01*
X129000000Y-103400000D02*
X129456249Y-103856249D01*
X127350000Y-88300000D02*
X127350000Y-94400000D01*
X129456249Y-103856249D02*
X133705000Y-103856249D01*
X131190381Y-81490381D02*
X131287739Y-81490381D01*
X133775000Y-79003120D02*
X133775000Y-78125000D01*
X129000000Y-103400000D02*
X128990760Y-103400000D01*
%TO.N,Net-(R4-Pad1)*%
X135357500Y-106931250D02*
X135350000Y-106938750D01*
X135350000Y-106938750D02*
X135350000Y-103861249D01*
X135350000Y-103861249D02*
X135355000Y-103856249D01*
%TO.N,/LED_RED*%
X136300000Y-93500000D02*
X136275000Y-93475000D01*
X136275000Y-93475000D02*
X136275000Y-89475000D01*
D67*
%TO.N,/PowerStage/GH_A*%
X193106250Y-57300000D02*
X193106250Y-46768750D01*
X196600000Y-53950000D02*
X196650000Y-53900000D01*
X193106250Y-57300000D02*
X193106250Y-56325001D01*
X195531251Y-53900000D02*
X196650000Y-53900000D01*
X193106250Y-56325001D02*
X195531251Y-53900000D01*
X193106250Y-46768750D02*
X196675000Y-43200000D01*
%TO.N,/PowerStage/GL_A*%
X195646250Y-62250000D02*
X195646250Y-75181251D01*
X195646250Y-75181251D02*
X196064999Y-75600000D01*
X195646250Y-62250000D02*
X195646250Y-63671250D01*
X195646250Y-63671250D02*
X196675000Y-64700000D01*
X196064999Y-75600000D02*
X196650000Y-75600000D01*
%TO.N,Net-(U5-OUT)*%
X164825489Y-84075536D02*
X164200489Y-84700536D01*
X165795489Y-84075536D02*
X164825489Y-84075536D01*
%TO.N,/PowerStage/GH_B*%
X193082500Y-99777452D02*
X195609952Y-97250000D01*
X193082500Y-100752451D02*
X193082500Y-89842500D01*
X195609952Y-97250000D02*
X196600000Y-97250000D01*
X193082500Y-89842500D02*
X196625000Y-86300000D01*
X193082500Y-100752451D02*
X193082500Y-99777452D01*
%TO.N,/PowerStage/GL_B*%
X195622500Y-105702451D02*
X195622500Y-117847500D01*
X195622500Y-117847500D02*
X196575000Y-118800000D01*
X195622500Y-107047500D02*
X196575000Y-108000000D01*
X195622500Y-105702451D02*
X195622500Y-107047500D01*
%TO.N,Net-(U7-OUT)*%
X164250000Y-112420000D02*
X164275000Y-112395000D01*
X164250000Y-113990000D02*
X164250000Y-112420000D01*
%TO.N,/PowerStage/GH_C*%
X185860489Y-132260536D02*
X189505489Y-135905536D01*
X178655489Y-134770537D02*
X178655489Y-135855536D01*
X176175488Y-132290536D02*
X178655489Y-134770537D01*
X175200489Y-132290536D02*
X176175488Y-132290536D01*
X175230489Y-132260536D02*
X185860489Y-132260536D01*
X175200489Y-132290536D02*
X175230489Y-132260536D01*
%TO.N,/PowerStage/GL_C*%
X169005489Y-134830536D02*
X167955489Y-135880536D01*
X170250489Y-134830536D02*
X169005489Y-134830536D01*
X157760490Y-134830536D02*
X157255489Y-135335537D01*
X170250489Y-134830536D02*
X157760490Y-134830536D01*
X157255489Y-135335537D02*
X157255489Y-135855536D01*
%TO.N,Net-(U9-OUT)*%
X148852989Y-114078037D02*
X148877989Y-114103037D01*
X148852989Y-112493037D02*
X148852989Y-114078037D01*
%TO.N,Net-(U10-EN)*%
X140315489Y-49463037D02*
X140240489Y-49388037D01*
X144140489Y-49463037D02*
X140315489Y-49463037D01*
X144140489Y-48063037D02*
X144140489Y-49463037D01*
%TO.N,Net-(U11-RON)*%
X172477989Y-44633037D02*
X172477989Y-46203037D01*
X172477989Y-46203037D02*
X172502989Y-46228037D01*
%TO.N,/RegulatorStage/VSENSE*%
X117590489Y-45638037D02*
X117590489Y-47000537D01*
X117577989Y-47013037D02*
X117877989Y-47013037D01*
X132015489Y-47038037D02*
X134365489Y-49388037D01*
X117902989Y-47038037D02*
X132015489Y-47038037D01*
X117877989Y-47013037D02*
X117902989Y-47038037D01*
X134365489Y-49388037D02*
X134840489Y-49388037D01*
X117590489Y-47000537D02*
X117577989Y-47013037D01*
D69*
%TO.N,/OTG_DM*%
X138700000Y-82500000D02*
X139150000Y-82050000D01*
X139150000Y-82050000D02*
X141200000Y-82050000D01*
X124511318Y-100600000D02*
X131000000Y-94111318D01*
X131000000Y-88850000D02*
X131000000Y-94111318D01*
X136100000Y-84100000D02*
X135750000Y-84100000D01*
X123407500Y-100600000D02*
X124511318Y-100600000D01*
X135750000Y-84100000D02*
X131000000Y-88850000D01*
%TO.N,/OTG_DP*%
X138650000Y-81600000D02*
X138700000Y-81550000D01*
X135519239Y-83350000D02*
X130500000Y-88369239D01*
X135550000Y-83350000D02*
X135519239Y-83350000D01*
X130500000Y-88369239D02*
X130500000Y-92307500D01*
X130500000Y-92307500D02*
X124107500Y-98700000D01*
X138700000Y-81550000D02*
X141200000Y-81550000D01*
X124107500Y-98700000D02*
X123407500Y-98700000D01*
D67*
%TO.N,/SD_A*%
X147500000Y-64000000D02*
X149200000Y-64000000D01*
X191950897Y-63963037D02*
X193106250Y-62807684D01*
X193106250Y-62807684D02*
X193106250Y-62250000D01*
X153136963Y-63963037D02*
X157300000Y-63963037D01*
X159700000Y-63963037D02*
X191950897Y-63963037D01*
D69*
X138275000Y-73550000D02*
X138275000Y-78125000D01*
D67*
X142300000Y-69200000D02*
X147500000Y-64000000D01*
X153100000Y-64000000D02*
X153136963Y-63963037D01*
%TO.N,/SD_B*%
X191172500Y-107257501D02*
X192365184Y-107257501D01*
X185422500Y-101507501D02*
X191172500Y-107257501D01*
X159300000Y-101513037D02*
X185416964Y-101513037D01*
X148000000Y-98850000D02*
X148000000Y-95950000D01*
X193082500Y-106540185D02*
X193082500Y-105702451D01*
X185416964Y-101513037D02*
X185422500Y-101507501D01*
D69*
X137775000Y-85725000D02*
X137775000Y-78125000D01*
D67*
X159250000Y-101463037D02*
X159300000Y-101513037D01*
X192365184Y-107257501D02*
X193082500Y-106540185D01*
X144800000Y-92750000D02*
X148000000Y-95950000D01*
X157750000Y-101463037D02*
X153100000Y-101463037D01*
D69*
X137775000Y-85725000D02*
X141700000Y-89650000D01*
%TO.N,/CAN_RX*%
X134549408Y-69460000D02*
X132105000Y-69460000D01*
X135275000Y-78125000D02*
X135275000Y-70185592D01*
X135275000Y-70185592D02*
X134549408Y-69460000D01*
D67*
%TO.N,/SD_C*%
X145100000Y-94300000D02*
X145050000Y-94350000D01*
X154411351Y-108361351D02*
X156700000Y-110650000D01*
X145050000Y-101800000D02*
X151600000Y-108350000D01*
X156700000Y-118800000D02*
X168477989Y-130577989D01*
X156700000Y-110650000D02*
X156700000Y-118800000D01*
D69*
X137275000Y-85932106D02*
X140800000Y-89457106D01*
X140800000Y-89457106D02*
X140800000Y-90000000D01*
D67*
X153100000Y-108361351D02*
X154411351Y-108361351D01*
D69*
X137275000Y-78125000D02*
X137275000Y-85932106D01*
D67*
X168477989Y-130577989D02*
X168477989Y-131493035D01*
X145050000Y-94350000D02*
X145050000Y-101800000D01*
X169275490Y-132290536D02*
X170250489Y-132290536D01*
X168477989Y-131493035D02*
X169275490Y-132290536D01*
D69*
X140800000Y-90000000D02*
X141450000Y-90650000D01*
%TO.N,/CAN_TX*%
X134775000Y-78125000D02*
X134775000Y-75940000D01*
X134775000Y-75940000D02*
X132105000Y-73270000D01*
%TO.N,/FAN*%
X111750000Y-135050000D02*
X108600000Y-135050000D01*
X117800000Y-126800000D02*
X115500000Y-129100000D01*
X134025000Y-97075000D02*
X133800000Y-97300000D01*
X133800000Y-97300000D02*
X133607106Y-97300000D01*
X115500000Y-131300000D02*
X111750000Y-135050000D01*
X134275000Y-89475000D02*
X134275000Y-92025000D01*
X134275000Y-92025000D02*
X134250000Y-92050000D01*
X117800000Y-113107106D02*
X117800000Y-126800000D01*
X133607106Y-97300000D02*
X117800000Y-113107106D01*
X115500000Y-129100000D02*
X115500000Y-131300000D01*
%TO.N,/UART_TX*%
X119850000Y-88950000D02*
X120100000Y-89200000D01*
X120100000Y-89200000D02*
X126700000Y-89200000D01*
X137128120Y-91000000D02*
X137000000Y-91000000D01*
X119700000Y-58200000D02*
X119700000Y-60700000D01*
X119700000Y-62200000D02*
X119700000Y-69770000D01*
X137775000Y-90353120D02*
X137128120Y-91000000D01*
X119700000Y-72935000D02*
X119700000Y-84000000D01*
X137775000Y-89475000D02*
X137775000Y-90353120D01*
D68*
%TO.N,/TEMP*%
X132700000Y-83550000D02*
X132750000Y-83550000D01*
D67*
X153200000Y-71000000D02*
X157600000Y-71000000D01*
X142600000Y-71000000D02*
X149150000Y-71000000D01*
X159725000Y-70975000D02*
X159700000Y-71000000D01*
X149150000Y-71000000D02*
X149200000Y-70950000D01*
D69*
X192794511Y-72419464D02*
X192844511Y-72469464D01*
X134250000Y-83550000D02*
X132750000Y-83550000D01*
D67*
X189200000Y-70975000D02*
X159725000Y-70975000D01*
D69*
X136450000Y-81350000D02*
X134250000Y-83550000D01*
D67*
X189205536Y-70969464D02*
X192794511Y-70969464D01*
X189200000Y-70975000D02*
X189205536Y-70969464D01*
X153150000Y-70950000D02*
X153200000Y-71000000D01*
X192794511Y-70969464D02*
X192794511Y-72419464D01*
D69*
X132700000Y-83550000D02*
X129850000Y-83550000D01*
%TO.N,Net-(J3-Pin_2)*%
X115100000Y-117875000D02*
X108605000Y-117875000D01*
X108605000Y-117875000D02*
X108550000Y-117930000D01*
%TO.N,Net-(J1-D-)*%
X111600000Y-99269650D02*
X115605350Y-99269650D01*
X115605350Y-99269650D02*
X115975000Y-98900000D01*
%TO.N,Net-(J1-D+)*%
X115594650Y-100069650D02*
X115975000Y-100450000D01*
X111600000Y-100069650D02*
X115594650Y-100069650D01*
%TD*%
%TA.AperFunction,Conductor*%
%TO.N,/TP_A*%
G36*
X197521716Y-78169685D02*
G01*
X197534637Y-78179225D01*
X199100000Y-79500000D01*
X199935726Y-79500000D01*
X199974044Y-79506069D01*
X200144189Y-79561352D01*
X200162255Y-79567222D01*
X200388146Y-79603000D01*
X200388147Y-79603000D01*
X200711853Y-79603000D01*
X200711854Y-79603000D01*
X200937745Y-79567222D01*
X200937748Y-79567221D01*
X200937749Y-79567221D01*
X201125956Y-79506069D01*
X201164274Y-79500000D01*
X201676000Y-79500000D01*
X201743039Y-79519685D01*
X201788794Y-79572489D01*
X201800000Y-79624000D01*
X201800000Y-81726000D01*
X201780315Y-81793039D01*
X201727511Y-81838794D01*
X201676000Y-81850000D01*
X199050000Y-81850000D01*
X197584935Y-83070887D01*
X197520832Y-83098683D01*
X197504527Y-83099624D01*
X191622975Y-83051016D01*
X191556101Y-83030778D01*
X191510784Y-82977598D01*
X191500000Y-82927020D01*
X191500000Y-78274000D01*
X191519685Y-78206961D01*
X191572489Y-78161206D01*
X191624000Y-78150000D01*
X197454677Y-78150000D01*
X197521716Y-78169685D01*
G37*
%TD.AperFunction*%
%TD*%
%TA.AperFunction,Conductor*%
%TO.N,GND*%
G36*
X154593897Y-123319685D02*
G01*
X154639652Y-123372489D01*
X154650855Y-123423139D01*
X154699133Y-130375139D01*
X154679914Y-130442313D01*
X154627429Y-130488434D01*
X154575136Y-130500000D01*
X149923142Y-130500000D01*
X149856103Y-130480315D01*
X149810348Y-130427511D01*
X149799145Y-130376861D01*
X149750867Y-123424861D01*
X149770086Y-123357687D01*
X149822571Y-123311566D01*
X149874864Y-123300000D01*
X154526858Y-123300000D01*
X154593897Y-123319685D01*
G37*
%TD.AperFunction*%
%TD*%
%TA.AperFunction,Conductor*%
%TO.N,/TP_C*%
G36*
X154572445Y-132332722D02*
G01*
X154618200Y-132385526D01*
X154629398Y-132435612D01*
X154677458Y-136616907D01*
X154658545Y-136684168D01*
X154648238Y-136698296D01*
X153327989Y-138263036D01*
X153327989Y-139256675D01*
X153321920Y-139294993D01*
X153298267Y-139367789D01*
X153262489Y-139593682D01*
X153262489Y-139917389D01*
X153298266Y-140143281D01*
X153313457Y-140190033D01*
X153321920Y-140216079D01*
X153327989Y-140254395D01*
X153327989Y-140839037D01*
X153308304Y-140906076D01*
X153255500Y-140951831D01*
X153203989Y-140963037D01*
X151101989Y-140963037D01*
X151034950Y-140943352D01*
X150989195Y-140890548D01*
X150977989Y-140839037D01*
X150977989Y-138213037D01*
X149756730Y-136747526D01*
X149728934Y-136683423D01*
X149727989Y-136668143D01*
X149727989Y-132437037D01*
X149747674Y-132369998D01*
X149800478Y-132324243D01*
X149851989Y-132313037D01*
X154505406Y-132313037D01*
X154572445Y-132332722D01*
G37*
%TD.AperFunction*%
%TD*%
%TA.AperFunction,Conductor*%
%TO.N,/TP_B*%
G36*
X197421716Y-121369685D02*
G01*
X197434637Y-121379225D01*
X199000000Y-122700000D01*
X199875726Y-122700000D01*
X199914044Y-122706069D01*
X200084189Y-122761352D01*
X200102255Y-122767222D01*
X200328146Y-122803000D01*
X200328147Y-122803000D01*
X200651853Y-122803000D01*
X200651854Y-122803000D01*
X200877745Y-122767222D01*
X200877748Y-122767221D01*
X200877749Y-122767221D01*
X201065956Y-122706069D01*
X201104274Y-122700000D01*
X201576000Y-122700000D01*
X201643039Y-122719685D01*
X201688794Y-122772489D01*
X201700000Y-122824000D01*
X201700000Y-124926000D01*
X201680315Y-124993039D01*
X201627511Y-125038794D01*
X201576000Y-125050000D01*
X198950000Y-125050000D01*
X197484935Y-126270887D01*
X197420832Y-126298683D01*
X197404527Y-126299624D01*
X191522975Y-126251016D01*
X191456101Y-126230778D01*
X191410784Y-126177598D01*
X191400000Y-126127020D01*
X191400000Y-121474000D01*
X191419685Y-121406961D01*
X191472489Y-121361206D01*
X191524000Y-121350000D01*
X197354677Y-121350000D01*
X197421716Y-121369685D01*
G37*
%TD.AperFunction*%
%TD*%
%TA.AperFunction,Conductor*%
%TO.N,GND*%
G36*
X188547339Y-121275883D02*
G01*
X188593691Y-121328163D01*
X188605489Y-121380953D01*
X188605489Y-126176051D01*
X188585804Y-126243090D01*
X188533000Y-126288845D01*
X188481541Y-126300051D01*
X175529541Y-126305483D01*
X175462493Y-126285827D01*
X175416716Y-126233042D01*
X175405489Y-126181483D01*
X175405489Y-121528134D01*
X175425174Y-121461095D01*
X175477978Y-121415340D01*
X175528075Y-121404142D01*
X188480080Y-121256961D01*
X188547339Y-121275883D01*
G37*
%TD.AperFunction*%
%TD*%
%TA.AperFunction,Conductor*%
%TO.N,GND*%
G36*
X188947361Y-78225869D02*
G01*
X188993702Y-78278160D01*
X189005489Y-78330926D01*
X189005489Y-82982911D01*
X188985804Y-83049950D01*
X188933000Y-83095705D01*
X188882872Y-83106903D01*
X175680872Y-83254137D01*
X175613617Y-83235202D01*
X175567276Y-83182911D01*
X175555489Y-83130145D01*
X175555489Y-78478160D01*
X175575174Y-78411121D01*
X175627978Y-78365366D01*
X175678103Y-78354168D01*
X188880107Y-78206934D01*
X188947361Y-78225869D01*
G37*
%TD.AperFunction*%
%TD*%
M02*
