%TF.GenerationSoftware,KiCad,Pcbnew,8.0.9-8.0.9-0~ubuntu24.04.1*%
%TF.CreationDate,2025-06-09T21:45:26+03:00*%
%TF.ProjectId,BLDC Motor Driver,424c4443-204d-46f7-946f-722044726976,rev?*%
%TF.SameCoordinates,Original*%
%TF.FileFunction,Paste,Top*%
%TF.FilePolarity,Positive*%
%FSLAX46Y46*%
G04 Gerber Fmt 4.6, Leading zero omitted, Abs format (unit mm)*
G04 Created by KiCad (PCBNEW 8.0.9-8.0.9-0~ubuntu24.04.1) date 2025-06-09 21:45:26*
%MOMM*%
%LPD*%
G01*
G04 APERTURE LIST*
G04 Aperture macros list*
%AMRoundRect*
0 Rectangle with rounded corners*
0 $1 Rounding radius*
0 $2 $3 $4 $5 $6 $7 $8 $9 X,Y pos of 4 corners*
0 Add a 4 corners polygon primitive as box body*
4,1,4,$2,$3,$4,$5,$6,$7,$8,$9,$2,$3,0*
0 Add four circle primitives for the rounded corners*
1,1,$1+$1,$2,$3*
1,1,$1+$1,$4,$5*
1,1,$1+$1,$6,$7*
1,1,$1+$1,$8,$9*
0 Add four rect primitives between the rounded corners*
20,1,$1+$1,$2,$3,$4,$5,0*
20,1,$1+$1,$4,$5,$6,$7,0*
20,1,$1+$1,$6,$7,$8,$9,0*
20,1,$1+$1,$8,$9,$2,$3,0*%
G04 Aperture macros list end*
%ADD10RoundRect,0.250000X-0.550000X1.412500X-0.550000X-1.412500X0.550000X-1.412500X0.550000X1.412500X0*%
%ADD11RoundRect,0.200000X-0.275000X0.200000X-0.275000X-0.200000X0.275000X-0.200000X0.275000X0.200000X0*%
%ADD12RoundRect,0.200000X-0.200000X-0.275000X0.200000X-0.275000X0.200000X0.275000X-0.200000X0.275000X0*%
%ADD13RoundRect,0.250001X2.049999X0.799999X-2.049999X0.799999X-2.049999X-0.799999X2.049999X-0.799999X0*%
%ADD14RoundRect,0.073750X-0.531250X-0.221250X0.531250X-0.221250X0.531250X0.221250X-0.531250X0.221250X0*%
%ADD15RoundRect,0.250001X-0.799999X2.049999X-0.799999X-2.049999X0.799999X-2.049999X0.799999X2.049999X0*%
%ADD16RoundRect,0.150000X-0.150000X0.825000X-0.150000X-0.825000X0.150000X-0.825000X0.150000X0.825000X0*%
%ADD17RoundRect,0.200000X0.275000X-0.200000X0.275000X0.200000X-0.275000X0.200000X-0.275000X-0.200000X0*%
%ADD18RoundRect,0.250000X0.250000X0.475000X-0.250000X0.475000X-0.250000X-0.475000X0.250000X-0.475000X0*%
%ADD19RoundRect,0.242500X0.242500X0.382500X-0.242500X0.382500X-0.242500X-0.382500X0.242500X-0.382500X0*%
%ADD20RoundRect,0.150000X0.650000X0.150000X-0.650000X0.150000X-0.650000X-0.150000X0.650000X-0.150000X0*%
%ADD21RoundRect,0.140000X0.170000X-0.140000X0.170000X0.140000X-0.170000X0.140000X-0.170000X-0.140000X0*%
%ADD22RoundRect,0.375000X-0.375000X0.625000X-0.375000X-0.625000X0.375000X-0.625000X0.375000X0.625000X0*%
%ADD23RoundRect,0.500000X-1.400000X0.500000X-1.400000X-0.500000X1.400000X-0.500000X1.400000X0.500000X0*%
%ADD24RoundRect,0.250000X0.475000X-0.250000X0.475000X0.250000X-0.475000X0.250000X-0.475000X-0.250000X0*%
%ADD25RoundRect,0.250000X-0.250000X-0.475000X0.250000X-0.475000X0.250000X0.475000X-0.250000X0.475000X0*%
%ADD26RoundRect,0.200000X0.200000X0.275000X-0.200000X0.275000X-0.200000X-0.275000X0.200000X-0.275000X0*%
%ADD27RoundRect,0.225000X-0.225000X-0.250000X0.225000X-0.250000X0.225000X0.250000X-0.225000X0.250000X0*%
%ADD28RoundRect,0.225000X-0.250000X0.225000X-0.250000X-0.225000X0.250000X-0.225000X0.250000X0.225000X0*%
%ADD29RoundRect,0.150000X0.150000X-0.825000X0.150000X0.825000X-0.150000X0.825000X-0.150000X-0.825000X0*%
%ADD30R,0.900000X1.700000*%
%ADD31RoundRect,0.250000X-0.475000X0.250000X-0.475000X-0.250000X0.475000X-0.250000X0.475000X0.250000X0*%
%ADD32RoundRect,0.150000X0.825000X0.150000X-0.825000X0.150000X-0.825000X-0.150000X0.825000X-0.150000X0*%
%ADD33RoundRect,0.250000X-0.450000X0.262500X-0.450000X-0.262500X0.450000X-0.262500X0.450000X0.262500X0*%
%ADD34RoundRect,0.140000X0.140000X0.170000X-0.140000X0.170000X-0.140000X-0.170000X0.140000X-0.170000X0*%
%ADD35RoundRect,0.250000X1.425000X-0.362500X1.425000X0.362500X-1.425000X0.362500X-1.425000X-0.362500X0*%
%ADD36R,2.400000X2.000000*%
%ADD37RoundRect,0.112500X0.187500X0.112500X-0.187500X0.112500X-0.187500X-0.112500X0.187500X-0.112500X0*%
%ADD38RoundRect,0.150000X-0.825000X-0.150000X0.825000X-0.150000X0.825000X0.150000X-0.825000X0.150000X0*%
%ADD39RoundRect,0.112500X-0.112500X0.187500X-0.112500X-0.187500X0.112500X-0.187500X0.112500X0.187500X0*%
%ADD40RoundRect,0.250000X0.362500X1.425000X-0.362500X1.425000X-0.362500X-1.425000X0.362500X-1.425000X0*%
%ADD41R,2.260600X0.508000*%
%ADD42R,3.987800X2.057400*%
%ADD43RoundRect,0.218750X0.218750X0.381250X-0.218750X0.381250X-0.218750X-0.381250X0.218750X-0.381250X0*%
%ADD44RoundRect,0.225000X0.225000X0.250000X-0.225000X0.250000X-0.225000X-0.250000X0.225000X-0.250000X0*%
%ADD45RoundRect,0.075000X-0.700000X-0.075000X0.700000X-0.075000X0.700000X0.075000X-0.700000X0.075000X0*%
%ADD46RoundRect,0.075000X-0.075000X-0.700000X0.075000X-0.700000X0.075000X0.700000X-0.075000X0.700000X0*%
%ADD47RoundRect,0.225000X0.250000X-0.225000X0.250000X0.225000X-0.250000X0.225000X-0.250000X-0.225000X0*%
%ADD48RoundRect,0.387500X-0.387500X0.777500X-0.387500X-0.777500X0.387500X-0.777500X0.387500X0.777500X0*%
%ADD49RoundRect,0.218750X0.218750X0.256250X-0.218750X0.256250X-0.218750X-0.256250X0.218750X-0.256250X0*%
%ADD50R,1.550000X0.600000*%
%ADD51R,2.600000X3.100000*%
G04 APERTURE END LIST*
D10*
%TO.C,C33*%
X121990489Y-44650537D03*
X121990489Y-49725537D03*
%TD*%
D11*
%TO.C,R23*%
X167955489Y-135880536D03*
X167955489Y-137530536D03*
%TD*%
D12*
%TO.C,R18*%
X196600000Y-97250000D03*
X198250000Y-97250000D03*
%TD*%
D11*
%TO.C,R32*%
X117577989Y-47013037D03*
X117577989Y-48663037D03*
%TD*%
D13*
%TO.C,C27*%
X172900000Y-154200000D03*
X164100000Y-154200000D03*
%TD*%
D14*
%TO.C,U1*%
X120897500Y-98700000D03*
X120897500Y-99650000D03*
X120897500Y-100600000D03*
X123407500Y-100600000D03*
X123407500Y-99650000D03*
X123407500Y-98700000D03*
%TD*%
D15*
%TO.C,C22*%
X216600000Y-102700000D03*
X216600000Y-111500000D03*
%TD*%
D16*
%TO.C,U5*%
X169605489Y-79125536D03*
X168335489Y-79125536D03*
X167065489Y-79125536D03*
X165795489Y-79125536D03*
X165795489Y-84075536D03*
X167065489Y-84075536D03*
X168335489Y-84075536D03*
X169605489Y-84075536D03*
%TD*%
D17*
%TO.C,R14*%
X164200489Y-84700536D03*
X164200489Y-83050536D03*
%TD*%
D18*
%TO.C,C19*%
X191817500Y-98452451D03*
X189917500Y-98452451D03*
%TD*%
D19*
%TO.C,U11*%
X170452989Y-48908037D03*
X170452989Y-47358037D03*
X169252989Y-48908037D03*
X169252989Y-47358037D03*
D20*
X172502989Y-50038037D03*
X172502989Y-48768037D03*
X172502989Y-47498037D03*
X172502989Y-46228037D03*
X167202989Y-46228037D03*
X167202989Y-47498037D03*
X167202989Y-48768037D03*
X167202989Y-50038037D03*
%TD*%
D21*
%TO.C,C32*%
X133240489Y-45568037D03*
X133240489Y-44608037D03*
%TD*%
D22*
%TO.C,U12*%
X145150000Y-54350000D03*
X142850000Y-54350000D03*
D23*
X142850000Y-60650000D03*
D22*
X140550000Y-54350000D03*
%TD*%
D17*
%TO.C,R6*%
X125130000Y-72185000D03*
X125130000Y-70535000D03*
%TD*%
D12*
%TO.C,R19*%
X196575000Y-118800000D03*
X198225000Y-118800000D03*
%TD*%
%TO.C,R5*%
X134650000Y-93500000D03*
X136300000Y-93500000D03*
%TD*%
D24*
%TO.C,C12*%
X162400489Y-84925536D03*
X162400489Y-83025536D03*
%TD*%
D11*
%TO.C,R22*%
X189505489Y-135905536D03*
X189505489Y-137555536D03*
%TD*%
D25*
%TO.C,C6*%
X138250000Y-92100000D03*
X140150000Y-92100000D03*
%TD*%
D24*
%TO.C,C23*%
X177480489Y-131010536D03*
X177480489Y-129110536D03*
%TD*%
D12*
%TO.C,R26*%
X148852989Y-112493037D03*
X150502989Y-112493037D03*
%TD*%
D26*
%TO.C,R3*%
X121350000Y-85500000D03*
X119700000Y-85500000D03*
%TD*%
D11*
%TO.C,R29*%
X144140489Y-49463037D03*
X144140489Y-51113037D03*
%TD*%
D12*
%TO.C,R12*%
X196650000Y-53900000D03*
X198300000Y-53900000D03*
%TD*%
D10*
%TO.C,C38*%
X151402989Y-44495537D03*
X151402989Y-49570537D03*
%TD*%
D27*
%TO.C,C5*%
X119750000Y-87100000D03*
X121300000Y-87100000D03*
%TD*%
D28*
%TO.C,C3*%
X126700000Y-77825000D03*
X126700000Y-79375000D03*
%TD*%
D29*
%TO.C,U6*%
X191812500Y-105702451D03*
X193082500Y-105702451D03*
X194352500Y-105702451D03*
X195622500Y-105702451D03*
X195622500Y-100752451D03*
X194352500Y-100752451D03*
X193082500Y-100752451D03*
X191812500Y-100752451D03*
%TD*%
D24*
%TO.C,C39*%
X138200000Y-59800000D03*
X138200000Y-57900000D03*
%TD*%
D25*
%TO.C,C18*%
X163925000Y-110595000D03*
X165825000Y-110595000D03*
%TD*%
D11*
%TO.C,R24*%
X178655489Y-135855536D03*
X178655489Y-137505536D03*
%TD*%
D30*
%TO.C,SW1*%
X126200000Y-85600000D03*
X122800000Y-85600000D03*
%TD*%
D27*
%TO.C,C7*%
X141175000Y-76025000D03*
X142725000Y-76025000D03*
%TD*%
D31*
%TO.C,C31*%
X174602989Y-48183037D03*
X174602989Y-50083037D03*
%TD*%
D11*
%TO.C,R31*%
X117590489Y-43988037D03*
X117590489Y-45638037D03*
%TD*%
D32*
%TO.C,U9*%
X153827989Y-117913037D03*
X153827989Y-116643037D03*
X153827989Y-115373037D03*
X153827989Y-114103037D03*
X148877989Y-114103037D03*
X148877989Y-115373037D03*
X148877989Y-116643037D03*
X148877989Y-117913037D03*
%TD*%
D31*
%TO.C,C28*%
X142340489Y-46488037D03*
X142340489Y-48388037D03*
%TD*%
D26*
%TO.C,R33*%
X164027989Y-45883037D03*
X162377989Y-45883037D03*
%TD*%
D33*
%TO.C,10k1*%
X192794511Y-69144464D03*
X192794511Y-70969464D03*
%TD*%
D12*
%TO.C,R20*%
X164275000Y-112395000D03*
X165925000Y-112395000D03*
%TD*%
D34*
%TO.C,C36*%
X162382989Y-44583037D03*
X161422989Y-44583037D03*
%TD*%
D18*
%TO.C,C21*%
X174127989Y-136710536D03*
X172227989Y-136710536D03*
%TD*%
D35*
%TO.C,R27*%
X152227989Y-134263037D03*
X152227989Y-128338037D03*
%TD*%
D36*
%TO.C,Y1*%
X123972011Y-82066963D03*
X123972011Y-78366963D03*
%TD*%
D12*
%TO.C,R2*%
X115975000Y-100450000D03*
X117625000Y-100450000D03*
%TD*%
D37*
%TO.C,D4*%
X175180489Y-129210536D03*
X173080489Y-129210536D03*
%TD*%
D38*
%TO.C,U8*%
X170250489Y-131020536D03*
X170250489Y-132290536D03*
X170250489Y-133560536D03*
X170250489Y-134830536D03*
X175200489Y-134830536D03*
X175200489Y-133560536D03*
X175200489Y-132290536D03*
X175200489Y-131020536D03*
%TD*%
D31*
%TO.C,C10*%
X197526250Y-58357501D03*
X197526250Y-60257501D03*
%TD*%
D39*
%TO.C,D3*%
X189967500Y-100752451D03*
X189967500Y-102852451D03*
%TD*%
D26*
%TO.C,R30*%
X172477989Y-44633037D03*
X170827989Y-44633037D03*
%TD*%
D11*
%TO.C,R28*%
X144140489Y-46413037D03*
X144140489Y-48063037D03*
%TD*%
D17*
%TO.C,R34*%
X156702989Y-50108037D03*
X156702989Y-48458037D03*
%TD*%
D31*
%TO.C,C30*%
X176652989Y-48183037D03*
X176652989Y-50083037D03*
%TD*%
D40*
%TO.C,R21*%
X193062500Y-123800000D03*
X187137500Y-123800000D03*
%TD*%
D12*
%TO.C,R10*%
X196675000Y-43200000D03*
X198325000Y-43200000D03*
%TD*%
D18*
%TO.C,C13*%
X191796250Y-55000000D03*
X189896250Y-55000000D03*
%TD*%
D32*
%TO.C,U3*%
X132105000Y-73270000D03*
X132105000Y-72000000D03*
X132105000Y-70730000D03*
X132105000Y-69460000D03*
X127155000Y-69460000D03*
X127155000Y-70730000D03*
X127155000Y-72000000D03*
X127155000Y-73270000D03*
%TD*%
D26*
%TO.C,R4*%
X135355000Y-103856249D03*
X133705000Y-103856249D03*
%TD*%
D11*
%TO.C,R9*%
X116700000Y-117875000D03*
X116700000Y-119525000D03*
%TD*%
D17*
%TO.C,R7*%
X192844511Y-74119464D03*
X192844511Y-72469464D03*
%TD*%
D29*
%TO.C,U4*%
X191836250Y-62250000D03*
X193106250Y-62250000D03*
X194376250Y-62250000D03*
X195646250Y-62250000D03*
X195646250Y-57300000D03*
X194376250Y-57300000D03*
X193106250Y-57300000D03*
X191836250Y-57300000D03*
%TD*%
D12*
%TO.C,R11*%
X196675000Y-64700000D03*
X198325000Y-64700000D03*
%TD*%
D25*
%TO.C,C24*%
X152377989Y-112243037D03*
X154277989Y-112243037D03*
%TD*%
D15*
%TO.C,C15*%
X216600000Y-59800000D03*
X216600000Y-68600000D03*
%TD*%
D31*
%TO.C,C29*%
X178702989Y-48183037D03*
X178702989Y-50083037D03*
%TD*%
D41*
%TO.C,J1*%
X111600000Y-98469650D03*
X111600000Y-99269650D03*
X111600000Y-100069650D03*
X111600000Y-100869650D03*
X111600000Y-101669650D03*
D42*
X111575000Y-95144650D03*
X111575000Y-104994650D03*
X107375000Y-95144650D03*
X107375000Y-104994650D03*
%TD*%
D34*
%TO.C,C35*%
X167232989Y-44883037D03*
X166272989Y-44883037D03*
%TD*%
D43*
%TO.C,L1*%
X128452989Y-44638037D03*
X126327989Y-44638037D03*
%TD*%
D15*
%TO.C,C20*%
X216600000Y-88500000D03*
X216600000Y-97300000D03*
%TD*%
D40*
%TO.C,R15*%
X193062500Y-80650000D03*
X187137500Y-80650000D03*
%TD*%
D44*
%TO.C,C1*%
X122877500Y-102200000D03*
X121327500Y-102200000D03*
%TD*%
D11*
%TO.C,R25*%
X157255489Y-135855536D03*
X157255489Y-137505536D03*
%TD*%
D44*
%TO.C,C2*%
X122977500Y-97150000D03*
X121427500Y-97150000D03*
%TD*%
D12*
%TO.C,R13*%
X196650000Y-75600000D03*
X198300000Y-75600000D03*
%TD*%
D25*
%TO.C,C25*%
X148577989Y-110693037D03*
X150477989Y-110693037D03*
%TD*%
D39*
%TO.C,D2*%
X190026250Y-57275000D03*
X190026250Y-59375000D03*
%TD*%
D12*
%TO.C,R17*%
X196575000Y-108000000D03*
X198225000Y-108000000D03*
%TD*%
D21*
%TO.C,C34*%
X165602989Y-50063037D03*
X165602989Y-49103037D03*
%TD*%
D26*
%TO.C,R1*%
X117625000Y-98900000D03*
X115975000Y-98900000D03*
%TD*%
D45*
%TO.C,U2*%
X129850000Y-80050000D03*
X129850000Y-80550000D03*
X129850000Y-81050000D03*
X129850000Y-81550000D03*
X129850000Y-82050000D03*
X129850000Y-82550000D03*
X129850000Y-83050000D03*
X129850000Y-83550000D03*
X129850000Y-84050000D03*
X129850000Y-84550000D03*
X129850000Y-85050000D03*
X129850000Y-85550000D03*
X129850000Y-86050000D03*
X129850000Y-86550000D03*
X129850000Y-87050000D03*
X129850000Y-87550000D03*
D46*
X131775000Y-89475000D03*
X132275000Y-89475000D03*
X132775000Y-89475000D03*
X133275000Y-89475000D03*
X133775000Y-89475000D03*
X134275000Y-89475000D03*
X134775000Y-89475000D03*
X135275000Y-89475000D03*
X135775000Y-89475000D03*
X136275000Y-89475000D03*
X136775000Y-89475000D03*
X137275000Y-89475000D03*
X137775000Y-89475000D03*
X138275000Y-89475000D03*
X138775000Y-89475000D03*
X139275000Y-89475000D03*
D45*
X141200000Y-87550000D03*
X141200000Y-87050000D03*
X141200000Y-86550000D03*
X141200000Y-86050000D03*
X141200000Y-85550000D03*
X141200000Y-85050000D03*
X141200000Y-84550000D03*
X141200000Y-84050000D03*
X141200000Y-83550000D03*
X141200000Y-83050000D03*
X141200000Y-82550000D03*
X141200000Y-82050000D03*
X141200000Y-81550000D03*
X141200000Y-81050000D03*
X141200000Y-80550000D03*
X141200000Y-80050000D03*
D46*
X139275000Y-78125000D03*
X138775000Y-78125000D03*
X138275000Y-78125000D03*
X137775000Y-78125000D03*
X137275000Y-78125000D03*
X136775000Y-78125000D03*
X136275000Y-78125000D03*
X135775000Y-78125000D03*
X135275000Y-78125000D03*
X134775000Y-78125000D03*
X134275000Y-78125000D03*
X133775000Y-78125000D03*
X133275000Y-78125000D03*
X132775000Y-78125000D03*
X132275000Y-78125000D03*
X131775000Y-78125000D03*
%TD*%
D25*
%TO.C,C17*%
X167425000Y-112145000D03*
X169325000Y-112145000D03*
%TD*%
D13*
%TO.C,C26*%
X187000000Y-154200000D03*
X178200000Y-154200000D03*
%TD*%
D15*
%TO.C,C14*%
X216600000Y-45700000D03*
X216600000Y-54500000D03*
%TD*%
D24*
%TO.C,C11*%
X163895489Y-81025536D03*
X163895489Y-79125536D03*
%TD*%
D28*
%TO.C,C9*%
X134130000Y-70585000D03*
X134130000Y-72135000D03*
%TD*%
D47*
%TO.C,C4*%
X126700000Y-82600000D03*
X126700000Y-81050000D03*
%TD*%
D48*
%TO.C,D5*%
X130940489Y-48923037D03*
X130940489Y-44653037D03*
%TD*%
D17*
%TO.C,R35*%
X156702989Y-47083037D03*
X156702989Y-45433037D03*
%TD*%
D32*
%TO.C,U7*%
X169200000Y-117800000D03*
X169200000Y-116530000D03*
X169200000Y-115260000D03*
X169200000Y-113990000D03*
X164250000Y-113990000D03*
X164250000Y-115260000D03*
X164250000Y-116530000D03*
X164250000Y-117800000D03*
%TD*%
D31*
%TO.C,C37*%
X138200000Y-54400000D03*
X138200000Y-56300000D03*
%TD*%
D11*
%TO.C,R8*%
X115100000Y-117875000D03*
X115100000Y-119525000D03*
%TD*%
D12*
%TO.C,R16*%
X196625000Y-86300000D03*
X198275000Y-86300000D03*
%TD*%
D27*
%TO.C,C8*%
X141200000Y-77575000D03*
X142750000Y-77575000D03*
%TD*%
D49*
%TO.C,D1*%
X136287500Y-95200000D03*
X134712500Y-95200000D03*
%TD*%
D50*
%TO.C,U10*%
X134840489Y-45578037D03*
X134840489Y-46848037D03*
X134840489Y-48118037D03*
X134840489Y-49388037D03*
X140240489Y-49388037D03*
X140240489Y-48118037D03*
X140240489Y-46848037D03*
X140240489Y-45578037D03*
D51*
X137540489Y-47483037D03*
%TD*%
D43*
%TO.C,L2*%
X162762500Y-50083037D03*
X160637500Y-50083037D03*
%TD*%
D31*
%TO.C,C16*%
X197467500Y-101915002D03*
X197467500Y-103815002D03*
%TD*%
M02*
